<?xml version="1.0" encoding="utf-8"?>
<!-- Generator: Adobe Illustrator 22.0.1, SVG Export Plug-In . SVG Version: 6.00 Build 0)  -->
<svg version="1.1" id="ic_piv" xmlns="http://www.w3.org/2000/svg" xmlns:xlink="http://www.w3.org/1999/xlink" x="0px" y="0px"
	 viewBox="0 0 24 24" style="enable-background:new 0 0 24 24;" xml:space="preserve">
<style type="text/css">
	.st0{fill:#51FFFF;}
	.st1{fill:none;}
</style>
<g id="Group_8935">
	<g id="Group_8934">
		<path id="Path_18928" class="st0" d="M12,2C6.5,2,2,6.5,2,12s4.5,10,10,10s10-4.5,10-10S17.5,2,12,2z M12,21.2
			c-5.1,0-9.3-4.1-9.3-9.2S6.9,2.7,12,2.7s9.3,4.1,9.3,9.3S17.1,21.2,12,21.2L12,21.2z"/>
	</g>
</g>
<path id="Rectangle_4543" class="st1" d="M0,0h24v24H0V0z"/>
<g>
	<polygon class="st0" points="9.8,9.8 14,6.9 13,5.5 7,9.5 7.5,9.6 9.8,9.8 7.5,9.6 9.8,9.8 	"/>
	<polygon class="st0" points="15.4,10.8 14.4,9.3 10.8,11.8 10.8,11.8 10.8,11.8 10.8,11.8 10.8,11.8 10.6,11.8 8,11.5 12.5,18.2 
		14.3,17 11.8,13.3 	"/>
</g>
</svg>
