<?xml version="1.0" encoding="utf-8"?>
<!-- Generator: Adobe Illustrator 22.0.1, SVG Export Plug-In . SVG Version: 6.00 Build 0)  -->
<svg version="1.1" id="Слой_1" xmlns="http://www.w3.org/2000/svg" xmlns:xlink="http://www.w3.org/1999/xlink" x="0px" y="0px"
	 viewBox="0 0 24 40" style="enable-background:new 0 0 24 40;" xml:space="preserve">
<style type="text/css">
	.st0{display:none;}
	.st1{display:inline;}
	.st2{fill:#000102;}
	.st3{display:none;fill:#51FFFF;}
	.st4{display:inline;fill:#FFFFFF;}
	.st5{font-family:'Arial-Black';}
	.st6{font-size:7px;}
	.st7{display:none;fill:#DBDBDB;}
	.st8{fill:#DBDBDB;}
</style>
<title>Dashboard</title>
<desc>Created with Sketch.</desc>
<g id="Dashboard" class="st0">
	<g id="Group" transform="translate(1.000000, 11.000000)" class="st1">
		<g id="Group_8812">
			<path id="Path_18866" class="st2" d="M10,8H0V0h10V8z M2,6h6V2H2V6z"/>
		</g>
		<g id="Group_8813" transform="translate(12.000000, 0.000000)">
			<path id="Path_18867" class="st2" d="M10,22H0V0h10V22z M2,20h6V2H2V20z"/>
		</g>
		<g id="Group_8814" transform="translate(0.000000, 10.000000)">
			<path id="Path_18868" class="st2" d="M10,12H0V0h10V12z M2,10h6V2H2V10z"/>
		</g>
	</g>
</g>
<path id="Dashboard_1_" class="st3" d="M23.1,17.3h-14v-6.4h14V17.3z M10.8,15.6h10.5v-2.9H10.8V15.6z M23.1,33.1h-14v-6.4h14V33.1z
	 M10.8,31.3h10.5v-2.9H10.8V31.3z M23.1,25.2h-14v-6.4h14V25.2z M10.8,23.5h10.5v-2.9H10.8V23.5z M7.4,17.3H1v-6.4h6.4V17.3z
	 M2.7,15.6h2.9v-2.9H2.7V15.6z M7.4,33.1H1v-6.4h6.4V33.1z M2.7,31.3h2.9v-2.9H2.7V31.3z M7.4,25.2H1v-6.4h6.4V25.2z M2.7,23.5h2.9
	v-2.9H2.7V23.5z"/>
<g id="privacy_1_" class="st0">
	<path class="st4" d="M12,34.1l-0.4-0.2c-0.1,0-2.4-1.1-4.7-3.1c-1.4-1.2-2.5-2.5-3.3-3.8c-1-1.7-1.5-3.5-1.5-5.4v-5.6
		c0-1.3,1-2.5,2.3-2.7C6.6,13,8.7,11.7,9.7,11c0.7-0.5,1.5-0.7,2.3-0.7s1.6,0.2,2.3,0.7c1,0.7,3.1,1.9,5.4,2.3l0,0
		c1.3,0.2,2.3,1.4,2.3,2.7v5.6c0,1.8-0.5,3.6-1.5,5.4c-0.8,1.3-1.9,2.6-3.3,3.8c-2.3,2-4.6,3-4.7,3.1L12,34.1z M12,12.2
		c-0.4,0-0.9,0.1-1.2,0.4c-1.2,0.8-3.5,2.2-6.1,2.6c-0.4,0.1-0.8,0.5-0.8,0.9v5.6c0,2.8,1.4,5.3,4.1,7.7c1.6,1.4,3.2,2.3,3.9,2.6
		c0.7-0.4,2.3-1.3,3.9-2.6c2.7-2.4,4.1-4.9,4.1-7.7v-5.6c0-0.4-0.3-0.8-0.8-0.9c-2.6-0.5-4.9-1.8-6.1-2.6
		C12.9,12.3,12.4,12.2,12,12.2z M12,29.9l-0.5-0.3c-0.8-0.5-1.5-1-2.2-1.6c-1.1-0.9-1.9-1.9-2.5-2.9c-0.7-1.1-1-2.3-1-3.5v-4.8
		l0.7-0.2c2.1-0.6,3.9-1.6,5-2.4L12,14l0.5,0.3c1.1,0.7,3,1.8,5,2.4l0.7,0.2v4.8c0,1.2-0.3,2.3-1,3.4c-0.6,1-1.4,1.9-2.4,2.8
		c-0.7,0.6-1.5,1.2-2.3,1.7L12,29.9z M7.6,18.3v3.4c0,0.8,0.2,1.7,0.7,2.5c0.5,0.8,1.2,1.6,2.1,2.4c0.5,0.4,1,0.8,1.5,1.1
		c0.6-0.4,1.1-0.8,1.6-1.2c0.9-0.8,1.6-1.6,2-2.4c0.5-0.8,0.7-1.6,0.7-2.4v-3.4c-1.7-0.6-3.3-1.4-4.4-2.1
		C10.9,16.9,9.4,17.7,7.6,18.3z"/>
	<text transform="matrix(1 0 0 1 9.6668 24.2648)" class="st4 st5 st6">F</text>
</g>
<path id="adress" class="st7" d="M23.3,14.7c0-1.2-1-2.2-2.2-2.2H20c-0.4-0.9-1.3-1.6-2.4-1.6H5.1c-1.5,0-2.7,1.2-2.7,2.7v1.6H0.7
	V17h1.8v4.4H0.7v1.8h1.8v4.4H0.7v1.8h1.8v1.6c0,1.5,1.2,2.7,2.7,2.7h12.4c1.2,0,2.1-0.7,2.5-1.8h1.1c1.2,0,2.2-1,2.2-2.2v-3.2
	c0-0.5-0.2-1-0.4-1.3c0.3-0.4,0.4-0.8,0.4-1.3v-3.2c0-0.5-0.2-1-0.4-1.3c0.3-0.4,0.4-0.8,0.4-1.3V14.7z M21.6,14.7v3.2
	c0,0.2-0.2,0.4-0.4,0.4h-0.9v-4.1h0.9C21.4,14.3,21.6,14.5,21.6,14.7z M21.6,20.6v3.2c0,0.2-0.2,0.4-0.4,0.4h-0.9v-4.1h0.9
	C21.4,20.1,21.6,20.3,21.6,20.6z M18.4,30.9c0,0.5-0.4,0.9-0.9,0.9H5.1c-0.5,0-0.9-0.4-0.9-0.9v-1.6h0.4v0c0,0,0,0,0,0
	c0.5,0,0.9-0.4,0.9-0.9c0-0.5-0.4-0.9-0.9-0.9c0,0,0,0,0,0v0H4.2v-4.4h0.4v0c0,0,0,0,0,0c0.5,0,0.9-0.4,0.9-0.9
	c0-0.5-0.4-0.9-0.9-0.9c0,0,0,0,0,0v0H4.2V17h0.4v0c0,0,0,0,0,0c0.5,0,0.9-0.4,0.9-0.9c0-0.5-0.4-0.9-0.9-0.9c0,0,0,0,0,0v0H4.2
	v-1.6c0-0.5,0.4-0.9,0.9-0.9h12.4c0.5,0,0.9,0.4,0.9,0.9V30.9z M21.6,29.6c0,0.2-0.2,0.4-0.4,0.4h-0.9V26h0.9c0.2,0,0.4,0.2,0.4,0.4
	V29.6z M13.8,22.7l2.6,2.6l-1,1c-0.3,0.3-0.6,0.4-1,0.4c-0.2,0-0.5,0-0.7-0.2c-1.1-0.4-2-0.7-3.7-2.4s-2.1-2.6-2.5-3.7
	c-0.2-0.6-0.2-1.3,0.3-1.7l1-1l2.5,2.5L10,21.6c0.3,0.4,0.7,0.8,1.2,1.3c0.5,0.5,0.9,0.8,1.3,1.1L13.8,22.7z"/>
<path id="master" class="st3" d="M11.3,19.9l6.3,6.2l-1.3,1.3L10,21.2c-1.6,1.9-1.7,4-1.8,4.4H6.5V24c0-1.3,0.4-3.5,1.4-4.9L6.8,18
	L8,16.7l1.2,1.2c1.4-0.9,3.6-1.3,5-1.3c0,0,0,0,0,0h1.7v1.6C15.5,18.3,13.4,18.3,11.3,19.9z M21,17.6v1.8h2.3v1.8H21v1.8h2.3v1.8H21
	v1.8h2.3v1.8H21v0.2c0,1.5-1.2,2.7-2.7,2.7h-0.2v2.3h-1.8v-2.3h-1.8v2.3h-1.8v-2.3h-1.8v2.3H9.3v-2.3H7.5v2.3H5.7v-2.3H5.6
	c-1.5,0-2.7-1.2-2.7-2.7v-0.2H0.6v-1.8h2.3v-1.8H0.6v-1.8h2.3v-1.8H0.6v-1.8h2.3v-1.8H0.6v-1.8h2.3v-0.2c0-1.5,1.2-2.7,2.7-2.7h0.2
	v-2.3h1.8V13h1.8v-2.3h1.8V13h1.8v-2.3h1.8V13h1.8v-2.3h1.8V13h0.2c1.5,0,2.7,1.2,2.7,2.7v0.2h2.3v1.8H21z M19.2,15.7
	c0-0.5-0.4-0.9-0.9-0.9H5.6c-0.5,0-0.9,0.4-0.9,0.9v12.8c0,0.5,0.4,0.9,0.9,0.9h12.8c0.5,0,0.9-0.4,0.9-0.9V15.7z"/>
<path id="setting" class="st7" d="M13.5,33.3h-3l-0.8-3c-0.7-0.2-1.3-0.5-2-0.8L5.1,31L3,28.9l1.5-2.7c-0.4-0.6-0.6-1.3-0.8-2
	l-3-0.8v-3l3-0.8c0.2-0.7,0.5-1.3,0.8-2L3,15.1L5.1,13l2.7,1.5c0.6-0.4,1.3-0.6,2-0.8l0.8-3h3l0.8,3c0.7,0.2,1.3,0.5,2,0.8l2.7-1.5
	l2.1,2.1l-1.5,2.7c0.4,0.6,0.6,1.3,0.8,2l3,0.8v3l-3,0.8c-0.2,0.7-0.5,1.3-0.8,2l1.5,2.7L18.9,31l-2.7-1.5c-0.6,0.4-1.3,0.6-2,0.8
	L13.5,33.3z M11.9,31.6h0.3l0.7-2.7l0.5-0.1c0.8-0.2,1.6-0.5,2.4-1l0.5-0.3l2.4,1.4l0.2-0.2l-1.4-2.4l0.3-0.5c0.5-0.7,0.8-1.5,1-2.4
	l0.1-0.5l2.7-0.7v-0.3l-2.7-0.7l-0.1-0.5c-0.2-0.8-0.5-1.6-1-2.4l-0.3-0.5l1.4-2.4l-0.2-0.2l-2.4,1.4l-0.5-0.3
	c-0.7-0.5-1.5-0.8-2.4-1l-0.5-0.1l-0.7-2.7h-0.3l-0.7,2.7l-0.5,0.1c-0.8,0.2-1.6,0.5-2.4,1l-0.5,0.3l-2.4-1.4l-0.2,0.2l1.4,2.4
	l-0.3,0.5c-0.5,0.7-0.8,1.5-1,2.4l-0.1,0.5l-2.7,0.7v0.3l2.7,0.7l0.1,0.5c0.2,0.8,0.5,1.6,1,2.4l0.3,0.5l-1.4,2.4l0.2,0.2l2.4-1.4
	l0.5,0.3c0.7,0.5,1.5,0.8,2.4,1l0.5,0.1L11.9,31.6z M22.5,22.8L22.5,22.8L22.5,22.8z M12,27.1c-2.8,0-5.1-2.3-5.1-5.1
	s2.3-5.1,5.1-5.1s5.1,2.3,5.1,5.1S14.8,27.1,12,27.1z M12,18.6c-1.9,0-3.4,1.5-3.4,3.4c0,1.9,1.5,3.4,3.4,3.4s3.4-1.5,3.4-3.4
	C15.4,20.1,13.9,18.6,12,18.6z"/>
<g id="send">
	<path class="st8" d="M10.3,31.3c-4.6,0-8.3-3.7-8.3-8.3c0-4.6,3.7-8.3,8.3-8.3c1.1,0,2.2,0.2,3.2,0.6v-2c-1-0.3-2.1-0.5-3.2-0.5
		c-2.7,0-5.2,1.1-7.1,3c-1.9,1.9-3,4.4-3,7.1c0,2.7,1.1,5.2,3,7.1c1.9,1.9,4.4,3,7.1,3c2.7,0,5.2-1.1,7.1-3c1.9-1.9,3-4.4,3-7.1
		h-1.8C18.6,27.6,14.9,31.3,10.3,31.3z"/>
	<polygon class="st8" points="19.6,9.6 15.4,13.8 16.7,15.1 18.7,13.1 18.7,21.2 20.5,21.2 20.5,13.1 22.5,15.1 23.8,13.8 	"/>
	<g>
		<polygon class="st8" points="8,20.9 12.2,18.1 11.2,16.6 5.2,20.6 5.7,20.7 8,20.9 5.7,20.7 8,20.9 		"/>
		<polygon class="st8" points="13.6,21.9 12.6,20.5 9,22.9 9,22.9 9,22.9 9,22.9 9,22.9 8.8,22.9 6.2,22.6 10.7,29.3 12.5,28.1 
			10,24.4 		"/>
	</g>
</g>
</svg>
