<?xml version="1.0" encoding="utf-8"?>
<!-- Generator: Adobe Illustrator 22.0.1, SVG Export Plug-In . SVG Version: 6.00 Build 0)  -->
<svg version="1.1" id="Слой_1" xmlns="http://www.w3.org/2000/svg" xmlns:xlink="http://www.w3.org/1999/xlink" x="0px" y="0px"
	 viewBox="0 0 24 40" style="enable-background:new 0 0 24 40;" xml:space="preserve">
<style type="text/css">
	.st0{display:none;}
	.st1{display:inline;}
	.st2{fill:#000102;}
	.st3{fill:#DBDBDB;}
	.st4{display:inline;fill:#DBDBDB;}
	.st5{font-family:'ArialMT';}
	.st6{font-size:12px;}
	.st7{display:none;fill:#51FFFF;}
	.st8{display:inline;fill:#51FFFF;}
	.st9{font-family:'Arial-Black';}
	.st10{font-size:7px;}
	.st11{fill:#51FFFF;}
</style>
<title>Dashboard</title>
<desc>Created with Sketch.</desc>
<g id="Dashboard" class="st0">
	<g id="Group" transform="translate(1.000000, 11.000000)" class="st1">
		<g id="Group_8812">
			<path id="Path_18866" class="st2" d="M10,8H0V0h10V8z M2,6h6V2H2V6z"/>
		</g>
		<g id="Group_8813" transform="translate(12.000000, 0.000000)">
			<path id="Path_18867" class="st2" d="M10,22H0V0h10V22z M2,20h6V2H2V20z"/>
		</g>
		<g id="Group_8814" transform="translate(0.000000, 10.000000)">
			<path id="Path_18868" class="st2" d="M10,12H0V0h10V12z M2,10h6V2H2V10z"/>
		</g>
	</g>
</g>
<g id="privacy" class="st0">
	<g class="st1">
		<g>
			<path class="st3" d="M23.2,14.2c0-0.1-0.1-0.3-0.1-0.4c-0.1-0.1-0.1-0.3-0.2-0.4c0,0-0.8-1.2-2.5-2.3C18.6,10,15.9,8.8,12,8.8
				c-3.9,0-6.6,1.1-8.3,2.3c-1.7,1.1-2.5,2.3-2.5,2.3C1.1,13.5,1,13.7,1,13.8c-0.1,0.1-0.1,0.3-0.1,0.4c0,0-0.2,0.9-0.2,2.4
				c0,1.2,0.1,2.8,0.5,4.7c0.4,1.9,1.3,4.2,2.8,6.6c1.5,2.4,3.8,4.8,7,7c0.3,0.2,0.6,0.3,1,0.3c0.3,0,0.7-0.1,1-0.3l0,0
				c3.2-2.2,5.5-4.6,7-7c1.5-2.4,2.4-4.7,2.8-6.6c0.4-1.9,0.5-3.5,0.5-4.7C23.3,15.1,23.2,14.3,23.2,14.2z M21.8,21
				c-0.4,1.8-1.2,4-2.6,6.3c-1.5,2.3-3.6,4.6-6.7,6.7c-0.1,0.1-0.3,0.1-0.4,0.1c-0.1,0-0.3,0-0.4-0.1c-3.1-2.1-5.3-4.4-6.7-6.7
				C3.4,25,2.6,22.8,2.2,21c-0.4-1.8-0.5-3.3-0.5-4.5c0-0.7,0-1.2,0.1-1.6c0-0.2,0-0.3,0.1-0.4c0,0,0.1-0.3,0.1-0.4
				C2,14.1,2,14,2,14v0c0,0,0.7-1.1,2.3-2.1c1.6-1,4.1-2,7.6-2c3.7,0,6.1,1,7.7,2.1c0.8,0.5,1.4,1,1.7,1.4c0.2,0.2,0.3,0.3,0.4,0.5
				c0,0.1,0.2,0.3,0.2,0.4c0,0.1,0.1,0.2,0.1,0.2l0,0c0,0.1,0.2,0.9,0.2,2.2C22.3,17.7,22.2,19.3,21.8,21z"/>
		</g>
	</g>
	<g class="st1">
		<g>
			<path class="st3" d="M20.5,15.1c0-0.1-0.1-0.2-0.1-0.3c-0.5-0.5-1.3-1.3-2.7-2c-1.4-0.7-3.2-1.2-5.6-1.2c-2.4,0-4.2,0.5-5.6,1.2
				c-1.4,0.7-2.2,1.5-2.7,2c-0.1,0.1-0.1,0.2-0.1,0.3c0,0.4-0.1,0.9-0.1,1.6c0,1.1,0.1,2.5,0.4,4c0.7,3.1,2.7,7.6,7.8,11.3
				c0.2,0.1,0.4,0.1,0.6,0c5.1-3.7,7.1-8.2,7.8-11.3c0.3-1.5,0.4-2.9,0.4-4C20.5,16,20.5,15.5,20.5,15.1z M19.1,20.4
				c-0.7,2.9-2.4,6.9-7.1,10.4c-4.6-3.5-6.4-7.6-7.1-10.4c-0.3-1.4-0.4-2.7-0.4-3.7c0-0.5,0-1,0.1-1.3c0.4-0.4,1.2-1.1,2.3-1.6
				c1.2-0.6,2.9-1.1,5.1-1.1c2.2,0,3.9,0.5,5.1,1.1c1.1,0.5,1.9,1.2,2.3,1.6c0,0.3,0.1,0.8,0.1,1.3C19.5,17.7,19.4,19,19.1,20.4z"/>
		</g>
	</g>
	<text transform="matrix(1 0 0 1 8.4167 25.1398)" class="st4 st5 st6">F</text>
</g>
<path id="Dashboard_1_" class="st7" d="M23.1,17.3h-14v-6.4h14V17.3z M10.8,15.6h10.5v-2.9H10.8V15.6z M23.1,33.1h-14v-6.4h14V33.1z
	 M10.8,31.3h10.5v-2.9H10.8V31.3z M23.1,25.2h-14v-6.4h14V25.2z M10.8,23.5h10.5v-2.9H10.8V23.5z M7.4,17.3H1v-6.4h6.4V17.3z
	 M2.7,15.6h2.9v-2.9H2.7V15.6z M7.4,33.1H1v-6.4h6.4V33.1z M2.7,31.3h2.9v-2.9H2.7V31.3z M7.4,25.2H1v-6.4h6.4V25.2z M2.7,23.5h2.9
	v-2.9H2.7V23.5z"/>
<g id="privacy_1_" class="st0">
	<path class="st8" d="M12,34.1l-0.4-0.2c-0.1,0-2.4-1.1-4.7-3.1c-1.4-1.2-2.5-2.5-3.3-3.8c-1-1.7-1.5-3.5-1.5-5.4v-5.6
		c0-1.3,1-2.5,2.3-2.7C6.6,13,8.7,11.7,9.7,11c0.7-0.5,1.5-0.7,2.3-0.7s1.6,0.2,2.3,0.7c1,0.7,3.1,1.9,5.4,2.3l0,0
		c1.3,0.2,2.3,1.4,2.3,2.7v5.6c0,1.8-0.5,3.6-1.5,5.4c-0.8,1.3-1.9,2.6-3.3,3.8c-2.3,2-4.6,3-4.7,3.1L12,34.1z M12,12.2
		c-0.4,0-0.9,0.1-1.2,0.4c-1.2,0.8-3.5,2.2-6.1,2.6c-0.4,0.1-0.8,0.5-0.8,0.9v5.6c0,2.8,1.4,5.3,4.1,7.7c1.6,1.4,3.2,2.3,3.9,2.6
		c0.7-0.4,2.3-1.3,3.9-2.6c2.7-2.4,4.1-4.9,4.1-7.7v-5.6c0-0.4-0.3-0.8-0.8-0.9c-2.6-0.5-4.9-1.8-6.1-2.6
		C12.9,12.3,12.4,12.2,12,12.2z M12,29.9l-0.5-0.3c-0.8-0.5-1.5-1-2.2-1.6c-1.1-0.9-1.9-1.9-2.5-2.9c-0.7-1.1-1-2.3-1-3.5v-4.8
		l0.7-0.2c2.1-0.6,3.9-1.6,5-2.4L12,14l0.5,0.3c1.1,0.7,3,1.8,5,2.4l0.7,0.2v4.8c0,1.2-0.3,2.3-1,3.4c-0.6,1-1.4,1.9-2.4,2.8
		c-0.7,0.6-1.5,1.2-2.3,1.7L12,29.9z M7.6,18.3v3.4c0,0.8,0.2,1.7,0.7,2.5c0.5,0.8,1.2,1.6,2.1,2.4c0.5,0.4,1,0.8,1.5,1.1
		c0.6-0.4,1.1-0.8,1.6-1.2c0.9-0.8,1.6-1.6,2-2.4c0.5-0.8,0.7-1.6,0.7-2.4v-3.4c-1.7-0.6-3.3-1.4-4.4-2.1
		C10.9,16.9,9.4,17.7,7.6,18.3z"/>
	<text transform="matrix(1 0 0 1 9.6668 24.2648)" class="st8 st9 st10">F</text>
</g>
<path id="adress" class="st11" d="M23.3,14.7c0-1.2-1-2.2-2.2-2.2H20c-0.4-0.9-1.3-1.6-2.4-1.6H5.1c-1.5,0-2.7,1.2-2.7,2.7v1.6H0.7
	V17h1.8v4.4H0.7v1.8h1.8v4.4H0.7v1.8h1.8v1.6c0,1.5,1.2,2.7,2.7,2.7h12.4c1.2,0,2.1-0.7,2.5-1.8h1.1c1.2,0,2.2-1,2.2-2.2v-3.2
	c0-0.5-0.2-1-0.4-1.3c0.3-0.4,0.4-0.8,0.4-1.3v-3.2c0-0.5-0.2-1-0.4-1.3c0.3-0.4,0.4-0.8,0.4-1.3V14.7z M21.6,14.7v3.2
	c0,0.2-0.2,0.4-0.4,0.4h-0.9v-4.1h0.9C21.4,14.3,21.6,14.5,21.6,14.7z M21.6,20.6v3.2c0,0.2-0.2,0.4-0.4,0.4h-0.9v-4.1h0.9
	C21.4,20.1,21.6,20.3,21.6,20.6z M18.4,30.9c0,0.5-0.4,0.9-0.9,0.9H5.1c-0.5,0-0.9-0.4-0.9-0.9v-1.6h0.4v0c0,0,0,0,0,0
	c0.5,0,0.9-0.4,0.9-0.9c0-0.5-0.4-0.9-0.9-0.9c0,0,0,0,0,0v0H4.2v-4.4h0.4v0c0,0,0,0,0,0c0.5,0,0.9-0.4,0.9-0.9
	c0-0.5-0.4-0.9-0.9-0.9c0,0,0,0,0,0v0H4.2V17h0.4v0c0,0,0,0,0,0c0.5,0,0.9-0.4,0.9-0.9c0-0.5-0.4-0.9-0.9-0.9c0,0,0,0,0,0v0H4.2
	v-1.6c0-0.5,0.4-0.9,0.9-0.9h12.4c0.5,0,0.9,0.4,0.9,0.9V30.9z M21.6,29.6c0,0.2-0.2,0.4-0.4,0.4h-0.9V26h0.9c0.2,0,0.4,0.2,0.4,0.4
	V29.6z M13.8,22.7l2.6,2.6l-1,1c-0.3,0.3-0.6,0.4-1,0.4c-0.2,0-0.5,0-0.7-0.2c-1.1-0.4-2-0.7-3.7-2.4s-2.1-2.6-2.5-3.7
	c-0.2-0.6-0.2-1.3,0.3-1.7l1-1l2.5,2.5L10,21.6c0.3,0.4,0.7,0.8,1.2,1.3c0.5,0.5,0.9,0.8,1.3,1.1L13.8,22.7z"/>
</svg>
