<?xml version="1.0" encoding="utf-8"?>
<!-- Generator: Adobe Illustrator 22.0.1, SVG Export Plug-In . SVG Version: 6.00 Build 0)  -->
<svg version="1.1" id="ic_empty_zpiv" xmlns="http://www.w3.org/2000/svg" xmlns:xlink="http://www.w3.org/1999/xlink" x="0px"
	 y="0px" viewBox="0 0 100 100" style="enable-background:new 0 0 100 100;" xml:space="preserve">
<style type="text/css">
	.st0{display:none;}
	.st1{display:inline;fill:#D6D6D6;}
	.st2{display:inline;}
	.st3{fill:#666666;}
	.st4{fill:none;}
	.st5{fill:#FFFFFF;}
</style>
<g id="Group_9086" class="st0">
	<path id="Path_19031" class="st1" d="M50,26c-13.3,0-24,10.7-24,24s10.7,24,24,24s24-10.7,24-24S63.3,26,50,26z M50,68
		c-9.9,0-18-8.1-18-18s8.1-18,18-18s18,8.1,18,18S59.9,68,50,68z"/>
	<g id="Group_9085" class="st2">
		<g id="Group_9083">
			<path id="Path_19032" class="st3" d="M50,31c-10.5,0-19,8.5-19,19s8.5,19,19,19s19-8.5,19-19S60.5,31,50,31z M50,67
				c-9.4,0-17-7.6-17-17s7.6-17,17-17s17,7.6,17,17S59.4,67,50,67z"/>
			<path id="Rectangle_4749" class="st3" d="M83,56h2v4h-2V56z"/>
			<path id="Rectangle_4750" class="st3" d="M83,44h2v8h-2V44z"/>
			<path id="Rectangle_4751" class="st3" d="M15,48h2v8h-2V48z"/>
			<path id="Rectangle_4752" class="st3" d="M15,40h2v4h-2V40z"/>
			<path id="Path_19033" class="st3" d="M95.2,71H85v-7h-2v9h7.8L76,90.5L61.2,73H68v-2h-4.5c11.6-7.5,15-22.9,7.5-34.5
				c-6.4-9.9-18.9-14-29.9-9.8L24,6.5L4.8,29H15v7h2v-9H9.2L24,9.5L38.8,27H32v2h4.5c-11.6,7.5-15,22.9-7.5,34.5
				c6.4,9.9,18.9,14,29.9,9.8L76,93.5L95.2,71z M27,50c0-12.7,10.3-23,23-23s23,10.3,23,23S62.7,73,50,73S27,62.7,27,50z"/>
		</g>
		<g id="Group_9084">
			<path id="Path_19034" class="st3" d="M58.2,47.4c-0.2-0.1-0.4-0.3-0.7-0.4c-0.1-0.1-0.2-0.1-0.4-0.2c-0.1,0-0.2-0.1-0.2-0.1
				c-0.7-0.2-1.4-0.3-2.1-0.3H50L48.8,48h6c0.1,0,0.1,0,0.2,0c0.2,0,0.4,0,0.6,0.1h0.2c0.2,0,0.4,0.1,0.6,0.2c0.1,0,0.1,0,0.2,0.1
				c0.1,0,0.2,0.1,0.3,0.2c0,0,0.1,0.1,0.2,0.1c0.1,0.1,0.3,0.2,0.4,0.3c0.4,0.3,0.6,0.7,0.8,1.1c0,0.1,0.1,0.1,0.1,0.2
				c0.1,0.3,0.2,0.6,0.2,0.9c0,0.2,0,0.4,0,0.6c0,0.4,0,0.8-0.2,1.2c-0.1,0.2-0.2,0.5-0.3,0.7s-0.2,0.3-0.3,0.5
				c-0.8,1-1.9,1.5-3.2,1.4h-5.8V64h1.7v-6.9h4.3c0.7,0,1.4-0.1,2.1-0.3c0.1,0,0.2-0.1,0.2-0.1c0.1,0,0.1-0.1,0.2-0.1
				c0.2-0.1,0.4-0.2,0.6-0.3l0.1-0.1c0,0,0.1,0,0.1-0.1c0.1-0.1,0.2-0.1,0.3-0.2c1.3-1,2-2.6,1.9-4.2C60.4,50,59.6,48.4,58.2,47.4z"
				/>
			<path id="Path_19035" class="st3" d="M52.8,38H41v1.7h9.2l-9.5,11.2v1.4H53v-1.7h-9.4l9.3-11L52.8,38z"/>
		</g>
	</g>
</g>
<path id="Rectangle_4753" class="st4" d="M0,0h100v100H0V0z"/>
<path class="st5" d="M71.3,50.1c0-11.7-9.5-21.3-21.3-21.3s-21.3,9.5-21.3,21.3S38.3,71.4,50,71.4C61.7,71.3,71.2,61.8,71.3,50.1z
	 M50,68.5c-10.2,0-18.4-8.2-18.4-18.4S39.8,31.7,50,31.7s18.4,8.2,18.4,18.4S60.2,68.5,50,68.5z"/>
<path class="st5" d="M10.3,14.7c1.8,0,3.4-1.2,4-2.9c0.1,0,0.2,0,0.2,0h12.2l4.8,4.8v6.8c-2,0.7-3.1,2.7-2.8,4.7
	c0.4,2,2.1,3.5,4.2,3.5s3.8-1.5,4.2-3.5s-0.8-4-2.8-4.7v-7.3c0-0.4-0.1-0.7-0.4-1l-5.7-5.7c-0.3-0.3-0.6-0.4-1-0.4H14.6
	c-0.1,0-0.2,0-0.2,0c-0.7-2-2.8-3.2-4.9-2.8C7.4,6.7,6,8.7,6.2,10.8C6.4,13.1,8.2,14.7,10.3,14.7z M33,28.9c-0.8,0-1.4-0.6-1.4-1.4
	s0.6-1.4,1.4-1.4s1.4,0.6,1.4,1.4C34.4,28.2,33.8,28.9,33,28.9z M10.3,9c0.8,0,1.4,0.6,1.4,1.4s-0.6,1.4-1.4,1.4s-1.4-0.6-1.4-1.4
	S9.6,9,10.3,9z"/>
<path class="st5" d="M10.3,27.4c1.8,0,3.4-1.2,4-2.9c0.1,0,0.2,0,0.2,0h4.8l2.3,2.3v4.8c0,0.1,0,0.2,0,0.2c-2,0.7-3.2,2.7-2.8,4.7
	c0.3,2.1,2.1,3.6,4.2,3.6s3.9-1.5,4.2-3.6c0.3-2.1-0.9-4-2.8-4.7c0-0.1,0-0.2,0-0.2v-5.4c0-0.4-0.1-0.7-0.4-1l-3.1-3.1
	c-0.3-0.3-0.6-0.4-1-0.4h-5.4c-0.1,0-0.2,0-0.2,0c-0.7-2-2.8-3.2-4.9-2.8c-2.1,0.5-3.5,2.5-3.3,4.6C6.4,25.8,8.2,27.4,10.3,27.4z
	 M23.1,37.4c-0.8,0-1.4-0.6-1.4-1.4c0-0.8,0.6-1.4,1.4-1.4s1.4,0.6,1.4,1.4C24.5,36.7,23.9,37.4,23.1,37.4z M10.3,21.8
	c0.8,0,1.4,0.6,1.4,1.4s-0.6,1.4-1.4,1.4S8.9,24,8.9,23.2S9.6,21.8,10.3,21.8z"/>
<path class="st5" d="M10.3,54.4c1.8,0,3.4-1.1,4-2.8h4.8c0.7,2,2.7,3.1,4.7,2.8c2-0.4,3.5-2.1,3.5-4.2c0-2.1-1.5-3.8-3.5-4.2
	s-4,0.8-4.7,2.8h-4.8c-0.7-2-2.9-3.2-5-2.7S5.8,48.6,6,50.7C6.4,52.7,8.2,54.4,10.3,54.4z M23.1,48.7c0.8,0,1.4,0.6,1.4,1.4
	c0,0.8-0.6,1.4-1.4,1.4s-1.4-0.6-1.4-1.4S22.3,48.7,23.1,48.7z M10.3,48.7c0.8,0,1.4,0.6,1.4,1.4c0,0.8-0.6,1.4-1.4,1.4
	s-1.4-0.6-1.4-1.4C8.9,49.3,9.6,48.7,10.3,48.7z"/>
<path class="st5" d="M67,31.7c2.1,0,3.8-1.5,4.2-3.5c0.4-2-0.8-4-2.8-4.7v-6.8l4.8-4.8h12.2c0.1,0,0.2,0,0.2,0
	c0.7,2,2.7,3.2,4.7,2.8c2.1-0.3,3.6-2.1,3.6-4.2s-1.5-3.9-3.6-4.2c-2.1-0.3-4,0.9-4.7,2.8c-0.1,0-0.2,0-0.2,0H72.7
	c-0.4,0-0.7,0.1-1,0.4L66,15.1c-0.3,0.3-0.4,0.6-0.4,1v7.3c-2,0.7-3.1,2.7-2.8,4.7C63.2,30.2,64.9,31.7,67,31.7z M89.7,9
	c0.8,0,1.4,0.6,1.4,1.4s-0.6,1.4-1.4,1.4s-1.4-0.6-1.4-1.4S88.9,9,89.7,9z M67,26c0.8,0,1.4,0.6,1.4,1.4s-0.6,1.4-1.4,1.4
	s-1.4-0.6-1.4-1.4C65.6,26.7,66.2,26,67,26z"/>
<path class="st5" d="M89.7,18.9c-1.8,0-3.4,1.2-4,2.9c-0.1,0-0.2,0-0.2,0h-5.4c-0.4,0-0.7,0.1-1,0.4L76,25.3c-0.3,0.3-0.4,0.6-0.4,1
	v5.4c0,0.1,0,0.2,0,0.2c-2,0.7-3.2,2.7-2.8,4.7c0.3,2.1,2.1,3.6,4.2,3.6s3.9-1.5,4.2-3.6c0.3-2.1-0.9-4-2.8-4.7c0-0.1,0-0.2,0-0.2
	v-4.8l2.3-2.3h4.8c0.1,0,0.2,0,0.2,0c0.7,2,2.8,3.2,4.9,2.8c2.1-0.5,3.5-2.5,3.3-4.6C93.7,20.6,91.8,18.9,89.7,18.9z M76.9,37.4
	c-0.8,0-1.4-0.6-1.4-1.4c0-0.8,0.6-1.4,1.4-1.4s1.4,0.6,1.4,1.4C78.3,36.7,77.7,37.4,76.9,37.4z M89.7,24.6c-0.8,0-1.4-0.6-1.4-1.4
	s0.6-1.4,1.4-1.4s1.4,0.6,1.4,1.4S90.5,24.6,89.7,24.6z"/>
<path class="st5" d="M89.7,45.9c-1.8,0-3.4,1.1-4,2.8h-4.8c-0.7-2-2.7-3.1-4.7-2.8c-2,0.4-3.5,2.1-3.5,4.2c0,2.1,1.5,3.8,3.5,4.2
	s4-0.8,4.7-2.8h4.8c0.7,2,2.9,3.2,5,2.7s3.5-2.5,3.3-4.6C93.6,47.5,91.8,45.9,89.7,45.9z M76.9,51.5c-0.8,0-1.4-0.6-1.4-1.4
	c0-0.8,0.6-1.4,1.4-1.4s1.4,0.6,1.4,1.4S77.7,51.5,76.9,51.5z M89.7,51.5c-0.8,0-1.4-0.6-1.4-1.4c0-0.8,0.6-1.4,1.4-1.4
	s1.4,0.6,1.4,1.4S90.5,51.5,89.7,51.5z"/>
<path class="st5" d="M33,68.5c-2.1,0-3.8,1.5-4.2,3.5c-0.4,2,0.8,4,2.8,4.7v6.8l-4.8,4.8H14.6c-0.1,0-0.2,0-0.2,0
	c-0.7-2-2.7-3.2-4.7-2.8c-2.1,0.3-3.6,2.1-3.6,4.2s1.5,3.9,3.6,4.2c2.1,0.3,4-0.9,4.7-2.8c0.1,0,0.2,0,0.2,0h12.8
	c0.4,0,0.7-0.1,1-0.4l5.7-5.7c0.3-0.3,0.4-0.6,0.4-1v-7.3c2-0.7,3.1-2.7,2.8-4.7C36.8,70,35.1,68.5,33,68.5z M10.3,91.2
	c-0.8,0-1.4-0.6-1.4-1.4s0.6-1.4,1.4-1.4s1.4,0.6,1.4,1.4C11.8,90.6,11.1,91.2,10.3,91.2z M33,74.2c-0.8,0-1.4-0.6-1.4-1.4
	s0.6-1.4,1.4-1.4s1.4,0.6,1.4,1.4S33.8,74.2,33,74.2z"/>
<path class="st5" d="M10.3,81.3c1.8,0,3.4-1.2,4-2.9c0.1,0,0.2,0,0.2,0h5.4c0.4,0,0.7-0.1,1-0.4l3.1-3.1c0.3-0.3,0.4-0.6,0.4-1v-5.4
	c0-0.1,0-0.2,0-0.2c2-0.7,3.2-2.7,2.8-4.7C26.9,61.5,25.1,60,23,60s-3.9,1.5-4.2,3.6c-0.3,2.1,0.9,4,2.8,4.7c0,0.1,0,0.2,0,0.2v4.8
	l-2.3,2.3h-4.8c-0.1,0-0.2,0-0.2,0c-0.7-2-2.8-3.2-4.9-2.8c-2.1,0.5-3.5,2.5-3.3,4.6C6.4,79.7,8.2,81.3,10.3,81.3z M23.1,62.9
	c0.8,0,1.4,0.6,1.4,1.4s-0.6,1.4-1.4,1.4s-1.4-0.6-1.4-1.4S22.3,62.9,23.1,62.9z M10.3,75.6c0.8,0,1.4,0.6,1.4,1.4s-0.6,1.4-1.4,1.4
	S8.9,77.8,8.9,77S9.6,75.6,10.3,75.6z"/>
<path class="st5" d="M89.7,85.5c-1.8,0-3.4,1.2-4,2.9c-0.1,0-0.2,0-0.2,0H73.3l-4.8-4.8v-6.8c2-0.7,3.1-2.7,2.8-4.7
	c-0.4-2-2.1-3.5-4.2-3.5s-3.8,1.5-4.2,3.5s0.8,4,2.8,4.7v7.3c0,0.4,0.1,0.7,0.4,1l5.7,5.7c0.3,0.3,0.6,0.4,1,0.4h12.8
	c0.1,0,0.2,0,0.2,0c0.7,2,2.8,3.2,4.9,2.8c2.1-0.5,3.5-2.5,3.3-4.6C93.7,87.1,91.8,85.5,89.7,85.5z M67,71.4c0.8,0,1.4,0.6,1.4,1.4
	s-0.6,1.4-1.4,1.4s-1.4-0.6-1.4-1.4S66.2,71.4,67,71.4z M89.7,91.2c-0.8,0-1.4-0.6-1.4-1.4s0.6-1.4,1.4-1.4s1.4,0.6,1.4,1.4
	S90.5,91.2,89.7,91.2z"/>
<path class="st5" d="M89.7,72.8c-1.8,0-3.4,1.2-4,2.9c-0.1,0-0.2,0-0.2,0h-4.8l-2.3-2.3v-4.8c0-0.1,0-0.2,0-0.2
	c2-0.7,3.2-2.7,2.8-4.7C80.8,61.5,79,60,76.9,60s-3.9,1.5-4.2,3.6c-0.3,2.1,0.9,4,2.8,4.7c0,0.1,0,0.2,0,0.2v5.4
	c0,0.4,0.1,0.7,0.4,1L79,78c0.3,0.3,0.6,0.4,1,0.4h5.4c0.1,0,0.2,0,0.2,0c0.7,2,2.8,3.2,4.9,2.8c2.1-0.5,3.5-2.5,3.3-4.6
	C93.7,74.4,91.8,72.8,89.7,72.8z M76.9,62.9c0.8,0,1.4,0.6,1.4,1.4s-0.6,1.4-1.4,1.4s-1.4-0.6-1.4-1.4S76.1,62.9,76.9,62.9z
	 M89.7,78.4c-0.8,0-1.4-0.6-1.4-1.4s0.6-1.4,1.4-1.4s1.4,0.6,1.4,1.4S90.5,78.4,89.7,78.4z"/>
<g>
	<polygon class="st5" points="44.7,45.4 54.7,38.6 52.3,35.1 38.1,44.7 39.3,44.9 44.7,45.4 39.3,44.9 	"/>
	<polygon class="st5" points="58.2,47.8 55.8,44.3 47.1,50.2 47.1,50.2 47.1,50.2 47.1,50.2 47.1,50.2 46.7,50.1 40.5,49.5 
		51.3,65.5 55.5,62.6 49.5,53.7 	"/>
</g>
</svg>
