<?xml version="1.0" encoding="utf-8"?>
<!-- Generator: Adobe Illustrator 22.0.1, SVG Export Plug-In . SVG Version: 6.00 Build 0)  -->
<svg version="1.1" id="ic_empty_multisend" xmlns="http://www.w3.org/2000/svg" xmlns:xlink="http://www.w3.org/1999/xlink" x="0px"
	 y="0px" viewBox="0 0 100 100" style="enable-background:new 0 0 100 100;" xml:space="preserve">
<style type="text/css">
	.st0{display:none;}
	.st1{display:inline;}
	.st2{fill:#D6D6D6;}
	.st3{fill:#666666;}
	.st4{fill:none;}
	.st5{fill:#192057;}
</style>
<g id="Group_9031" class="st0">
	<g id="Group_9029" class="st1">
		<path id="Rectangle_4683" class="st2" d="M45,18h10v9H45V18z"/>
		<g id="Group_9028">
			<path id="Rectangle_4684" class="st2" d="M14,66h6v10h-6V66z"/>
			<path id="Rectangle_4685" class="st2" d="M80,66h6v10h-6V66z"/>
			<path id="Rectangle_4686" class="st2" d="M47,66h6v10h-6V66z"/>
		</g>
	</g>
	<g id="Group_9030" class="st1">
		<path id="Rectangle_4687" class="st3" d="M43.4,35.8h6.8v1.4h-6.8V35.8z"/>
		<path id="Path_18985" class="st3" d="M46.6,41.9h4.5c2.9,0.2,5.4-2.1,5.5-5c0-0.2,0-0.4,0-0.6c0.1-2.9-2.1-5.3-4.9-5.4
			c-0.2,0-0.4,0-0.6,0h-6.5v1.6l4.5,0h1.9c2-0.2,3.7,1.3,3.9,3.3c0,0.2,0,0.4,0,0.6c0.1,2-1.4,3.8-3.4,3.9c-0.2,0-0.4,0-0.6,0h-6V49
			h1.8V41.9z"/>
		<path id="Rectangle_4688" class="st3" d="M67,40h2v4h-2V40z"/>
		<circle id="Ellipse_626" class="st3" cx="50" cy="73" r="1"/>
		<circle id="Ellipse_627" class="st3" cx="83" cy="73" r="1"/>
		<path id="Rectangle_4689" class="st3" d="M32,58h4v2h-4V58z"/>
		<path id="Path_18986" class="st3" d="M16,65h-3v3H7v4h2v-2h4v7h8v-7h4v21H9V76H7v17h20V68h-6v-3h-3v-5h10v-2H16V65z M19,67v8h-4
			v-8H19z"/>
		<circle id="Ellipse_628" class="st3" cx="17" cy="73" r="1"/>
		<path id="Path_18987" class="st3" d="M87,68v-3h-3v-7H51v-5h18v-5h-2v3H33V28h34v8h2v-8h4V17H59.5c2.2-2.5,2-6.3-0.5-8.5
			s-6.3-2-8.5,0.5c-0.2,0.2-0.4,0.5-0.5,0.7c-1.8-2.8-5.5-3.5-8.3-1.7c-2.8,1.8-3.5,5.5-1.7,8.3c0.2,0.3,0.4,0.5,0.6,0.7H27v11h4v25
			h18v5h-9v2h9v5h-3v3h-6v16h2V70h4v7h8v-7h4v21H42v-3h-2v5h20V68h-6v-3h-3v-5h31v5h-3v3h-6v12h2V70h4v7h8v-7h4v21H75v-7h-2v9h20V68
			H87z M71,19v7H56v-7H71z M51,13c0-2.2,1.8-4,4-4s4,1.8,4,4s-1.8,4-4,4h-4V13z M51,19h3v7h-8v-7H51z M45,9c2.2,0,4,1.8,4,4v4h-4
			c-2.2,0-4-1.8-4-4S42.8,9,45,9z M29,26v-7h15v7H29z M52,67v8h-4v-8H52z M85,75h-4v-8h4V75z"/>
	</g>
</g>
<path id="Rectangle_4690" class="st4" d="M0,0h100v100H0V0z"/>
<g id="Distributed-5">
	<path class="st5" d="M46.7,81.2c0,2.3,1.9,4.3,4.3,4.3c2.3,0,4.3-1.9,4.3-4.3s-1.9-4.3-4.3-4.3C48.7,76.9,46.7,78.8,46.7,81.2z
		 M52.4,81.2c0,0.8-0.6,1.4-1.4,1.4s-1.4-0.6-1.4-1.4c0-0.8,0.6-1.4,1.4-1.4S52.4,80.4,52.4,81.2z"/>
	<path class="st5" d="M15.6,81.2c0,2.3,1.9,4.3,4.3,4.3s4.3-1.9,4.3-4.3s-1.9-4.3-4.3-4.3S15.6,78.8,15.6,81.2z M21.2,81.2
		c0,0.8-0.6,1.4-1.4,1.4s-1.4-0.6-1.4-1.4c0-0.8,0.6-1.4,1.4-1.4S21.2,80.4,21.2,81.2z"/>
	<path class="st5" d="M93.5,68.4h-9.9v-7.1H85c0.8,0,1.4-0.6,1.4-1.4v-5.7c0-0.8-0.6-1.4-1.4-1.4h-5.7c-0.8,0-1.4,0.6-1.4,1.4v1.4
		H55.3v-1.4c0-0.8-0.6-1.4-1.4-1.4h-1.4V44l17.4-5.4c0.6-0.2,1-0.7,1-1.4V14.6c0-0.4-0.2-0.9-0.6-1.1c-0.1-0.1-0.2-0.1-0.3-0.2
		L51.5,6.2c-0.3-0.1-0.7-0.1-1,0l-18.4,7.1c-0.1,0.1-0.2,0.1-0.3,0.2c-0.4,0.3-0.6,0.7-0.6,1.1v22.7c0,0.6,0.4,1.2,1,1.4L49.6,44
		v8.9h-1.4c-0.8,0-1.4,0.6-1.4,1.4v1.4H24.1v-1.4c0-0.8-0.6-1.4-1.4-1.4H17c-0.8,0-1.4,0.6-1.4,1.4v5.7c0,0.8,0.6,1.4,1.4,1.4h1.4
		v7.1H8.5c-0.8,0-1.4,0.6-1.4,1.4v22.7c0,0.8,0.6,1.4,1.4,1.4h22.7c0.8,0,1.4-0.6,1.4-1.4V69.9c0-0.8-0.6-1.4-1.4-1.4h-9.9v-7.1h1.4
		c0.8,0,1.4-0.6,1.4-1.4v-1.4h22.7v1.4c0,0.8,0.6,1.4,1.4,1.4h1.4v7.1h-9.9c-0.8,0-1.4,0.6-1.4,1.4v22.7c0,0.8,0.6,1.4,1.4,1.4h22.7
		c0.8,0,1.4-0.6,1.4-1.4V69.9c0-0.8-0.6-1.4-1.4-1.4h-9.9v-7.1h1.4c0.8,0,1.4-0.6,1.4-1.4v-1.4h22.7v1.4c0,0.8,0.6,1.4,1.4,1.4h1.4
		v7.1h-9.9c-0.8,0-1.4,0.6-1.4,1.4v22.7c0,0.8,0.6,1.4,1.4,1.4h22.7c0.8,0,1.4-0.6,1.4-1.4V69.9C94.9,69.1,94.3,68.4,93.5,68.4z
		 M68,36.2L52.4,41V21.3L68,16.5V36.2z M51,9l14.1,5.4L51,18.8l-14.1-4.3L51,9z M34,16.5l15.6,4.8V41L34,36.2V16.5z M29.7,91.1H9.9
		V71.3h19.8V91.1z M21.2,58.5h-2.8v-2.8h2.8V58.5z M60.9,91.1H41.1V71.3h19.8V91.1z M52.4,58.5h-2.8v-2.8h2.8V58.5z M80.8,55.7h2.8
		v2.8h-2.8V55.7z M92.1,91.1H72.3V71.3h19.8V91.1z"/>
	<path class="st5" d="M77.9,81.2c0,2.3,1.9,4.3,4.3,4.3c2.3,0,4.3-1.9,4.3-4.3s-1.9-4.3-4.3-4.3C79.8,76.9,77.9,78.8,77.9,81.2z
		 M83.6,81.2c0,0.8-0.6,1.4-1.4,1.4c-0.8,0-1.4-0.6-1.4-1.4c0-0.8,0.6-1.4,1.4-1.4C83,79.8,83.6,80.4,83.6,81.2z"/>
	<path class="st5" d="M83.6,86.9h-8.5c-0.8,0-1.4,0.6-1.4,1.4c0,0.8,0.6,1.4,1.4,1.4h8.5c0.8,0,1.4-0.6,1.4-1.4
		C85,87.5,84.4,86.9,83.6,86.9z"/>
	<path class="st5" d="M87.9,89.7h1.4c0.8,0,1.4-0.6,1.4-1.4c0-0.8-0.6-1.4-1.4-1.4h-1.4c-0.8,0-1.4,0.6-1.4,1.4
		C86.4,89.1,87.1,89.7,87.9,89.7z"/>
</g>
<g>
	<polygon class="st5" points="39.6,26.7 43.8,23.9 42.8,22.4 36.9,26.4 37.4,26.5 39.6,26.7 37.4,26.5 39.6,26.7 	"/>
	<polygon class="st5" points="45.3,27.7 44.3,26.3 40.6,28.7 40.7,28.7 40.6,28.7 40.6,28.7 40.6,28.7 40.5,28.7 37.9,28.4 
		42.4,35.1 44.2,33.9 41.6,30.2 	"/>
</g>
<g>
	<polygon class="st5" points="58.9,26.7 63.2,23.9 62.2,22.4 56.2,26.4 56.7,26.5 59,26.7 56.7,26.5 58.9,26.7 	"/>
	<polygon class="st5" points="64.6,27.7 63.6,26.3 60,28.7 60,28.7 60,28.7 60,28.7 59.9,28.7 59.8,28.7 57.2,28.4 61.7,35.1 
		63.5,33.9 61,30.2 	"/>
</g>
</svg>
