<?xml version="1.0" encoding="utf-8"?>
<!-- Generator: Adobe Illustrator 22.0.1, SVG Export Plug-In . SVG Version: 6.00 Build 0)  -->
<svg version="1.1" id="ic_empty_contacts" xmlns="http://www.w3.org/2000/svg" xmlns:xlink="http://www.w3.org/1999/xlink" x="0px"
	 y="0px" viewBox="0 0 100 100" style="enable-background:new 0 0 100 100;" xml:space="preserve">
<style type="text/css">
	.st0{display:none;}
	.st1{display:inline;}
	.st2{fill:#D6D6D6;}
	.st3{fill:#666666;}
	.st4{fill:none;}
	.st5{fill:#FFFFFF;}
</style>
<g id="Group_9027" class="st0">
	<g id="Group_9025" class="st1">
		<path id="Rectangle_4676" class="st2" d="M18,8h11v84H18V8z"/>
		<path id="Rectangle_4677" class="st2" d="M81,17h5v12h-5V17z"/>
		<path id="Rectangle_4678" class="st2" d="M81,38h5v12h-5V38z"/>
		<path id="Rectangle_4679" class="st2" d="M81,59h5v12h-5V59z"/>
		<circle id="Ellipse_625" class="st2" cx="55" cy="36" r="9"/>
		<path id="Path_18981" class="st2" d="M70.6,64c-3.1-8.8-7.1-15-15.3-15s-12.5,6.2-15.8,15H70.6z"/>
	</g>
	<g id="Group_9026" class="st1">
		<path id="Rectangle_4680" class="st3" d="M64,7h4v2h-4V7z"/>
		<path id="Rectangle_4681" class="st3" d="M28,76h2v4h-2V76z"/>
		<path id="Path_18982" class="st3" d="M87,30V16h-5V7H72v2h8v82H30v-7h-2v7h-9V9h9v63h2V9h30V7H17v86h65V72h5V58h-5v-7h5V37h-5v-7
			H87z M82,18h3v10h-3V18z M85,60v10h-3V60H85z M85,39v10h-3V39H85z"/>
		<path id="Path_18983" class="st3" d="M45,36c0,5.5,4.5,10,10,10s10-4.5,10-10s-4.5-10-10-10S45,30.5,45,36z M63,36
			c0,4.4-3.6,8-8,8s-8-3.6-8-8s3.6-8,8-8S63,31.6,63,36z"/>
		<path id="Path_18984" class="st3" d="M55.3,48c-9.7,0-14,8.4-16.7,15.7L38.1,65H72l-0.5-1.3C68.8,55.9,64.8,48,55.3,48z M41,63
			c3.6-9.1,7.9-13,14.3-13s10.4,3.8,13.9,13H41z"/>
	</g>
</g>
<path id="Rectangle_4682" class="st4" d="M0,0h100v100H0V0z"/>
<g>
	<g>
		<path class="st5" d="M56.9,46.9c2.5-2,4.2-5,4.2-8.5c0-5.9-4.8-10.7-10.7-10.7s-10.7,4.8-10.7,10.7c0,3.4,1.6,6.5,4.2,8.5
			c-6.6,2.6-11.3,9-11.3,16.6c0,0.5,0.2,0.9,0.5,1.2c0.3,0.3,0.8,0.5,1.2,0.5h32.2c0.5,0,0.9-0.2,1.2-0.5c0.3-0.3,0.5-0.8,0.5-1.2
			C68.3,55.9,63.5,49.4,56.9,46.9z M43.2,38.4c0-2,0.8-3.8,2.1-5.1s3.1-2.1,5.1-2.1s3.8,0.8,5.1,2.1s2.1,3.1,2.1,5.1
			s-0.8,3.8-2.1,5.1s-3.1,2.1-5.1,2.1s-3.8-0.8-5.1-2.1S43.2,40.4,43.2,38.4z M36.2,61.7c0.4-3.3,1.9-6.2,4.1-8.4
			c2.6-2.6,6.2-4.2,10.2-4.2s7.6,1.6,10.2,4.2c2.2,2.2,3.7,5.2,4.1,8.4L36.2,61.7L36.2,61.7z"/>
	</g>
</g>
<g>
	<g>
		<path class="st5" d="M90.7,22.5c0-2.5-2.1-4.6-4.6-4.6h-4.6V11c0-2.5-2.1-4.6-4.6-4.6h-61c-2.5,0-4.6,2.1-4.6,4.6v76
			c0,2.5,2.1,4.6,4.6,4.6h61c2.5,0,4.6-2.1,4.6-4.6v-6.9h4.6c2.5,0,4.6-2.1,4.6-4.6V61.7c0-1.1-0.4-2.1-1-2.9c0.6-0.8,1-1.8,1-2.9
			V42.1c0-1.1-0.4-2.1-1-2.9c0.6-0.8,1-1.8,1-2.9V22.5L90.7,22.5z M19.9,88.1h-4c-0.6,0-1.2-0.5-1.2-1.2V11c0-0.6,0.5-1.2,1.2-1.2h4
			C19.9,9.9,19.9,88.1,19.9,88.1z M76.9,88.1H23.4V9.9h53.5c0.6,0,1.2,0.5,1.2,1.2V87l0,0C78,87.6,77.5,88.1,76.9,88.1z M87.2,75.5
			c0,0.6-0.5,1.2-1.2,1.2h-4.6V60.5H86c0.6,0,1.2,0.5,1.2,1.2V75.5z M87.2,55.9c0,0.6-0.5,1.2-1.2,1.2h-4.6V40.9H86
			c0.6,0,1.2,0.5,1.2,1.2V55.9z M87.2,36.3c0,0.6-0.5,1.2-1.2,1.2h-4.6V21.4H86c0.6,0,1.2,0.5,1.2,1.2V36.3z"/>
	</g>
</g>
</svg>
