<?xml version="1.0" encoding="utf-8"?>
<!-- Generator: Adobe Illustrator 22.0.1, SVG Export Plug-In . SVG Version: 6.00 Build 0)  -->
<svg version="1.1" id="Слой_1" xmlns="http://www.w3.org/2000/svg" xmlns:xlink="http://www.w3.org/1999/xlink" x="0px" y="0px"
	 viewBox="0 0 100 100" style="enable-background:new 0 0 100 100;" xml:space="preserve">
<style type="text/css">
	.st0{display:none;}
	.st1{display:inline;}
	.st2{fill:#D6D6D6;}
	.st3{fill:#666666;}
	.st4{display:inline;fill:none;}
	.st5{fill:#192057;}
</style>
<g id="ic_empty_peers" class="st0">
	<g id="Group_9024" class="st1">
		<g id="Group_9023">
			<circle id="Ellipse_618" class="st2" cx="50" cy="50" r="12"/>
			<circle id="Ellipse_619" class="st2" cx="50" cy="16" r="8"/>
			<circle id="Ellipse_620" class="st2" cx="50" cy="84" r="8"/>
			<circle id="Ellipse_621" class="st2" cx="20.6" cy="33" r="8"/>
			<circle id="Ellipse_622" class="st2" cx="79.4" cy="67" r="8"/>
			<circle id="Ellipse_623" class="st2" cx="20.6" cy="67" r="8"/>
			<circle id="Ellipse_624" class="st2" cx="79.4" cy="33" r="8"/>
		</g>
		<path id="Path_18980" class="st3" d="M83.9,59.2c-1.1-0.6-2.3-1-3.5-1.1V48h-2v10.1c-2.5,0.3-4.7,1.6-6.2,3.6l-10.5-6.1
			c1.7-3.5,1.7-7.7,0-11.2l10.5-6.1c1.5,2,3.7,3.3,6.2,3.6V44h2v-2.1c4.9-0.5,8.5-5,8-9.9s-5-8.5-9.9-8c-2.5,0.3-4.8,1.6-6.3,3.6
			l-14-8.1c2-4.6-0.1-9.9-4.6-11.9s-9.9,0.1-11.9,4.6c-1,2.3-1,4.9,0,7.2l-14,8.1c-2.9-4-8.6-4.9-12.6-1.9s-4.9,8.6-1.9,12.6
			c1.5,2,3.8,3.3,6.3,3.6V52h2V41.9c2.5-0.3,4.7-1.6,6.2-3.6l10.5,6.1c-1.7,3.5-1.7,7.7,0,11.2l-10.5,6.1c-1.5-2-3.7-3.3-6.2-3.6V56
			h-2v2.1c-4.9,0.5-8.5,5-8,9.9s5,8.5,9.9,8c2.5-0.3,4.8-1.6,6.3-3.6l14,8.1c-2,4.6,0.1,9.9,4.6,11.9s9.9-0.1,11.9-4.6
			c1-2.3,1-4.9,0-7.2l14-8.1c2.9,4,8.6,4.9,12.6,1.9c4-2.9,4.9-8.6,1.9-12.6C86,60.7,85,59.8,83.9,59.2z M50,61c-6.1,0-11-4.9-11-11
			s4.9-11,11-11s11,4.9,11,11l0,0C61,56.1,56.1,61,50,61z M75.9,26.9c3.3-1.9,7.6-0.8,9.6,2.6c1.9,3.3,0.8,7.6-2.6,9.6
			c-3.3,1.9-7.6,0.8-9.6-2.6c-0.9-1.6-1.2-3.5-0.7-5.3C73.2,29.4,74.3,27.9,75.9,26.9z M50,9c3.9,0,7,3.1,7,7s-3.1,7-7,7s-7-3.1-7-7
			C43,12.1,46.1,9,50,9z M26.6,36.5c-1.9,3.3-6.2,4.5-9.6,2.6c-1.6-0.9-2.8-2.5-3.3-4.2c-0.5-1.8-0.2-3.7,0.7-5.3
			c1.9-3.3,6.2-4.5,9.6-2.6C27.4,28.9,28.6,33.2,26.6,36.5z M28.8,36.6c0.8-1.9,1-4,0.5-5.9c-0.1-0.4-0.3-0.9-0.5-1.3l14-8.1
			c1.5,2,3.7,3.3,6.2,3.6V28h2v-3.1c2.5-0.3,4.7-1.6,6.2-3.6l14,8.1c-0.2,0.4-0.3,0.8-0.5,1.3c-0.5,2-0.4,4.1,0.4,5.9l-10.5,6.1
			c-2.2-3.2-5.8-5.3-9.7-5.6V32h-2v5.1c-3.9,0.3-7.5,2.4-9.7,5.6L28.8,36.6z M24.1,73.1c-3.3,1.9-7.6,0.8-9.6-2.6
			c-1.9-3.3-0.8-7.6,2.6-9.6c3.3-1.9,7.6-0.8,9.6,2.6c0.9,1.6,1.2,3.5,0.7,5.3C26.8,70.6,25.7,72.1,24.1,73.1z M50,91
			c-3.9,0-7-3.1-7-7s3.1-7,7-7s7,3.1,7,7C57,87.9,53.9,91,50,91z M57.2,78.7c-1.5-2-3.7-3.3-6.2-3.6V72h-2v3.1
			c-2.5,0.3-4.7,1.6-6.2,3.6l-14-8.1c0.2-0.4,0.3-0.8,0.5-1.3c0.5-2,0.4-4.1-0.4-5.9l10.5-6.1c2.2,3.2,5.8,5.3,9.7,5.6V68h2v-5.1
			c3.9-0.3,7.5-2.4,9.7-5.6l10.5,6.1c-0.8,1.9-1,4-0.5,5.9c0.1,0.4,0.3,0.9,0.5,1.3L57.2,78.7z M85.5,70.5c-1.9,3.3-6.2,4.5-9.6,2.6
			c-3.3-1.9-4.5-6.2-2.6-9.6c2-3.3,6.2-4.5,9.6-2.5C86.3,62.9,87.4,67.2,85.5,70.5z"/>
	</g>
	<path id="Rectangle_4675" class="st4" d="M0,0h100v100H0V0z"/>
</g>
<g id="Idea-3">
	<path class="st5" d="M92.5,50c0-3.5-2.6-6.4-6.1-6.8c-0.9-5.1-3-9.9-5.9-14.1c2.4-2.9,2-7.2-0.9-9.6c-2.5-2.1-6.2-2.1-8.7,0
		c-4.3-2.9-9.1-4.9-14.1-5.9c-0.4-3.7-3.7-6.5-7.5-6.1c-3.2,0.3-5.8,2.9-6.1,6.1c-5.1,0.9-9.9,2.9-14.1,5.9c-2.9-2.4-7.2-2-9.6,0.9
		c-2.1,2.5-2.1,6.2,0,8.7c-2.9,4.3-4.9,9.1-5.9,14.1c-3.7,0.4-6.5,3.7-6.1,7.5c0.3,3.2,2.9,5.8,6.1,6.1c0.9,5.1,3,9.9,5.9,14.1
		c-2.4,2.9-2,7.2,0.9,9.6c2.5,2.1,6.2,2.1,8.7,0c4.3,2.9,9.1,4.9,14.1,5.9c0.4,3.7,3.7,6.5,7.5,6.1c3.2-0.3,5.8-2.9,6.1-6.1
		c5.1-0.9,9.9-2.9,14.1-5.9c2.9,2.4,7.2,2,9.6-0.9c2.1-2.5,2.1-6.2,0-8.7c2.9-4.3,4.9-9.1,5.9-14.1C89.9,56.4,92.5,53.5,92.5,50z
		 M75.2,68.4c-3.8,0-6.8,3-6.8,6.8c0,1.1,0.3,2.2,0.8,3.2c-3.8,2.6-8.1,4.4-12.7,5.3c-1.1-3.6-4.9-5.6-8.5-4.6
		c-2.2,0.7-3.9,2.4-4.6,4.6c-4.5-0.9-8.8-2.7-12.7-5.3c1.8-3.3,0.6-7.4-2.7-9.2c-2-1.1-4.5-1.1-6.5,0c-2.6-3.8-4.4-8.1-5.3-12.7
		c3.6-1.1,5.6-4.9,4.6-8.5c-0.7-2.2-2.4-3.9-4.6-4.6c0.9-4.5,2.7-8.8,5.3-12.7c3.3,1.8,7.4,0.5,9.2-2.8c1.1-2,1.1-4.4,0-6.4
		c3.8-2.6,8.1-4.4,12.7-5.3c1.1,3.6,4.9,5.6,8.5,4.6c2.2-0.7,3.9-2.4,4.6-4.6c4.5,0.9,8.8,2.7,12.7,5.3c-1.8,3.3-0.6,7.4,2.7,9.2
		c2,1.1,4.5,1.1,6.5,0c2.6,3.8,4.4,8.1,5.3,12.7C80,44.6,78,48.4,79.1,52c0.7,2.2,2.4,3.9,4.6,4.6c-0.9,4.5-2.7,8.8-5.3,12.7
		C77.4,68.7,76.3,68.4,75.2,68.4L75.2,68.4z M89.8,50c0,2.3-1.8,4.1-4.1,4.1s-4.1-1.8-4.1-4.1c0-2.3,1.8-4.1,4.1-4.1
		S89.8,47.7,89.8,50z M78.1,21.9c1.6,1.6,1.6,4.2,0,5.8c0,0,0,0,0,0c-1.6,1.6-4.2,1.6-5.8,0c-1.6-1.6-1.6-4.2,0-5.8
		S76.4,20.2,78.1,21.9C78.1,21.9,78.1,21.9,78.1,21.9z M50,10.2c2.3,0,4.1,1.8,4.1,4.1s-1.8,4.1-4.1,4.1s-4.1-1.8-4.1-4.1
		S47.7,10.2,50,10.2z M21.9,21.9c1.6-1.6,4.2-1.6,5.8,0c1.6,1.6,1.6,4.2,0,5.8c-1.6,1.6-4.2,1.6-5.8,0
		C20.3,26.1,20.3,23.5,21.9,21.9C21.9,21.9,21.9,21.9,21.9,21.9z M10.2,50c0-2.3,1.8-4.1,4.1-4.1s4.1,1.8,4.1,4.1
		c0,2.3-1.8,4.1-4.1,4.1S10.2,52.3,10.2,50z M21.9,78.1c-1.6-1.6-1.6-4.2,0-5.8c1.6-1.6,4.2-1.6,5.8,0c1.6,1.6,1.6,4.2,0,5.8
		c0,0,0,0,0,0C26.1,79.7,23.5,79.7,21.9,78.1z M50,89.8c-2.3,0-4.1-1.8-4.1-4.1s1.8-4.1,4.1-4.1s4.1,1.8,4.1,4.1S52.3,89.8,50,89.8
		L50,89.8z M78.1,78.1c-1.6,1.6-4.2,1.6-5.8,0c-1.6-1.6-1.6-4.2,0-5.8c1.6-1.6,4.2-1.6,5.8,0C79.7,73.9,79.7,76.5,78.1,78.1
		C78.1,78.1,78.1,78.1,78.1,78.1z"/>
	<path class="st5" d="M33.5,36.9c0.4,0,0.8-0.2,1-0.5c1.1-1.2,2.3-2.4,3.7-3.3c0.6-0.4,0.8-1.3,0.3-1.9c-0.4-0.6-1.3-0.8-1.9-0.3
		l0,0c-1.5,1.1-3,2.3-4.2,3.7C32,35.2,32,36,32.6,36.5C32.9,36.8,33.2,36.9,33.5,36.9L33.5,36.9z"/>
	<path class="st5" d="M65.3,36.3c0.5,0.6,1.4,0.6,1.9,0.1c0.6-0.5,0.6-1.4,0.1-1.9c-1.3-1.4-2.7-2.6-4.2-3.7
		c-0.6-0.4-1.5-0.2-1.9,0.4c-0.4,0.6-0.2,1.4,0.3,1.9C63,34,64.2,35.1,65.3,36.3z"/>
	<path class="st5" d="M70,45c0.2,0.6,0.7,1,1.3,1c0.1,0,0.2,0,0.3,0c0.7-0.2,1.2-0.9,1-1.7c-0.5-1.8-1.1-3.6-2-5.2
		c-0.4-0.7-1.2-0.9-1.9-0.6c-0.7,0.4-0.9,1.2-0.6,1.9C69,41.8,69.5,43.4,70,45L70,45z"/>
	<path class="st5" d="M42.1,30.9c0.2,0,0.3,0,0.5-0.1c1.5-0.6,3.2-1,4.8-1.2c0.8-0.1,1.3-0.8,1.2-1.5c-0.1-0.8-0.8-1.3-1.5-1.2l0,0
		c-1.9,0.2-3.7,0.7-5.5,1.4c-0.7,0.3-1.1,1.1-0.8,1.8C41.1,30.5,41.6,30.9,42.1,30.9L42.1,30.9z"/>
	<path class="st5" d="M30,55c-0.4-1.6-0.6-3.3-0.6-4.9c0-0.8-0.6-1.4-1.4-1.4s-1.4,0.6-1.4,1.4c0,1.9,0.2,3.8,0.7,5.6
		c0.2,0.7,0.9,1.2,1.6,1C29.7,56.5,30.2,55.8,30,55C30,55,30,55,30,55L30,55z"/>
	<path class="st5" d="M52.4,29.6c1.6,0.2,3.3,0.6,4.8,1.2c0.2,0.1,0.3,0.1,0.5,0.1c0.8,0,1.4-0.6,1.4-1.4c0-0.6-0.4-1.1-0.9-1.3
		c-1.8-0.7-3.6-1.1-5.5-1.3c-0.8-0.1-1.4,0.5-1.5,1.2C51.2,28.8,51.7,29.5,52.4,29.6L52.4,29.6z"/>
	<path class="st5" d="M28.3,46.1c0.1,0,0.2,0,0.3,0c0.6,0,1.2-0.4,1.3-1c0.4-1.6,1-3.2,1.7-4.6c0.4-0.7,0.1-1.5-0.6-1.9
		c-0.7-0.4-1.5-0.1-1.9,0.6c-0.9,1.7-1.5,3.4-2,5.3C27.2,45.2,27.6,46,28.3,46.1z"/>
	<path class="st5" d="M61.7,66.9c-1.4,0.9-2.8,1.7-4.4,2.3c-0.7,0.3-1.1,1.1-0.8,1.8c0.2,0.5,0.7,0.9,1.3,0.9c0.2,0,0.3,0,0.5-0.1
		c1.8-0.7,3.4-1.5,5-2.6c0.6-0.4,0.8-1.3,0.3-1.9C63.2,66.7,62.3,66.5,61.7,66.9z"/>
	<path class="st5" d="M70.1,59c-0.7-0.4-1.5-0.1-1.9,0.6c-0.8,1.5-1.7,2.8-2.8,4.1c-0.5,0.6-0.4,1.4,0.1,1.9
		c0.6,0.5,1.4,0.4,1.9-0.1c1.2-1.4,2.3-3,3.2-4.6C71,60.2,70.7,59.3,70.1,59C70.1,59,70.1,59,70.1,59L70.1,59z"/>
	<path class="st5" d="M31.8,59.6c-0.4-0.7-1.2-0.9-1.9-0.6c-0.7,0.4-0.9,1.2-0.6,1.9c0.9,1.7,2,3.2,3.2,4.6c0.5,0.6,1.4,0.6,1.9,0.1
		c0.5-0.5,0.6-1.3,0.1-1.9C33.5,62.4,32.6,61.1,31.8,59.6z"/>
	<path class="st5" d="M71.9,48.6c-0.8,0-1.4,0.7-1.4,1.4c0,1.7-0.2,3.3-0.6,4.9c-0.2,0.7,0.3,1.5,1,1.7c0,0,0,0,0,0
		c0.1,0,0.2,0,0.3,0c0.6,0,1.2-0.4,1.3-1c0.4-1.8,0.7-3.7,0.7-5.6v-0.1C73.3,49.2,72.7,48.6,71.9,48.6C72,48.6,71.9,48.6,71.9,48.6z
		"/>
	<path class="st5" d="M42.7,69.3c-1.6-0.6-3-1.4-4.4-2.3c-0.6-0.4-1.5-0.3-1.9,0.4c-0.4,0.6-0.3,1.5,0.4,1.9c1.5,1.1,3.2,1.9,5,2.6
		c0.7,0.3,1.5-0.1,1.8-0.8C43.8,70.3,43.4,69.5,42.7,69.3L42.7,69.3L42.7,69.3z"/>
	<path class="st5" d="M52.5,70.4c-1.6,0.2-3.3,0.2-5,0c-0.8-0.1-1.4,0.5-1.5,1.2c-0.1,0.7,0.4,1.4,1.2,1.5c0.9,0.1,1.9,0.2,2.8,0.2
		c0.9,0,1.9-0.1,2.8-0.2c0.8-0.1,1.3-0.7,1.2-1.5C54,70.9,53.3,70.4,52.5,70.4C52.5,70.4,52.5,70.4,52.5,70.4L52.5,70.4z"/>
</g>
<g>
	<polygon class="st5" points="45.2,45.2 55.2,38.5 52.8,35 38.7,44.5 39.9,44.7 45.2,45.2 39.9,44.7 45.2,45.2 	"/>
	<polygon class="st5" points="58.6,47.6 56.2,44.1 47.6,49.9 47.6,50 47.6,49.9 47.6,50 47.6,49.9 47.2,49.9 41.1,49.3 51.8,65 
		55.9,62.2 50,53.4 	"/>
</g>
</svg>
