<?xml version="1.0" encoding="utf-8"?>
<!-- Generator: Adobe Illustrator 22.0.1, SVG Export Plug-In . SVG Version: 6.00 Build 0)  -->
<svg version="1.1" id="Слой_1" xmlns="http://www.w3.org/2000/svg" xmlns:xlink="http://www.w3.org/1999/xlink" x="0px" y="0px"
	 viewBox="0 0 100 100" style="enable-background:new 0 0 100 100;" xml:space="preserve">
<style type="text/css">
	.st0{display:none;}
	.st1{display:inline;}
	.st2{fill:#192057;}
	.st3{display:inline;fill:#192057;}
	.st4{fill:#FFFFFF;}
</style>
<g id="ic_staking_off" transform="translate(-150)" class="st0">
	<g id="Group_9010" class="st1">
		<g id="Group_9005">
			<circle id="Ellipse_612" class="st2" cx="200" cy="70" r="14"/>
			<path id="Rectangle_4658" class="st2" d="M191,28h18v18h-18V28z"/>
		</g>
		<g id="Group_9009">
			<g id="Group_9006">
				<path id="Rectangle_4659" class="st2" d="M231,58h2v4h-2V58z"/>
				<path id="Path_18967" class="st2" d="M231,91h-62v-7h-2v9h66V66h-2V91z"/>
				<path id="Rectangle_4660" class="st2" d="M167,76h2v4h-2V76z"/>
				<path id="Path_18968" class="st2" d="M230,27v2h7v16h-27V29h16v-2h-9.7c5-3.5,6.2-10.3,2.7-15.3S208.7,5.5,203.7,9
					c-1.6,1.1-2.9,2.7-3.7,4.5c-2.5-5.5-9-8-14.6-5.5s-8,9-5.5,14.6c0.8,1.8,2.1,3.3,3.7,4.5H161v20h6v25h2V47h62v7h2v-7h6V27H230z
					 M210,9c5,0,9,4,9,9s-4,9-9,9l0,0h-9v-9C201,13,205,9,210,9z M181,18c0-5,4-9,9-9s9,4,9,9v9h-9C185,27,181,23,181,18z M167,45
					h-4V29h27v16H167z M192,45V29h16v16H192z"/>
			</g>
			<g id="Group_9008">
				<path id="Path_18969" class="st2" d="M205,55.9V58c6.6,2.8,9.8,10.4,7,17s-10.4,9.8-17,7s-9.8-10.4-7-17c1.3-3.2,3.8-5.7,7-7
					v-2.1c-7.8,2.8-11.9,11.3-9.1,19.1s11.3,11.9,19.1,9.1s11.9-11.3,9.1-19.1C212.6,60.7,209.3,57.4,205,55.9z"/>
				<g id="Group_9007">
					<path id="Rectangle_4661" class="st2" d="M199,52h2v20h-2V52z"/>
				</g>
			</g>
		</g>
	</g>
	<path id="Rectangle_4662" class="st3" d="M150,0h100v100H150V0z"/>
</g>
<path class="st4" d="M43,12.2c0.1,0,0.2,0,0.2,0c1.7-0.3,3.4-0.5,5.1-0.6c0.7,0,1.3-0.7,1.3-1.4s-0.7-1.3-1.4-1.3
	c-1.8,0.1-3.6,0.3-5.4,0.6c-0.7,0.1-1.2,0.8-1.1,1.5C41.8,11.8,42.4,12.2,43,12.2z"/>
<path class="st4" d="M33,15.5c0.2,0,0.4,0,0.6-0.1c1.5-0.7,3.1-1.4,4.8-1.9c0.7-0.3,1-1,0.8-1.7c-0.2-0.6-0.9-1-1.6-0.8
	c-1.7,0.6-3.4,1.2-5.1,2c-0.7,0.3-0.9,1.1-0.6,1.8C32,15.2,32.5,15.5,33,15.5L33,15.5z"/>
<path class="st4" d="M12,38.6c0.1,0,0.3,0.1,0.4,0.1c0.6,0,1.1-0.4,1.3-0.9c0.5-1.6,1.2-3.2,2-4.7c0.3-0.7,0.1-1.5-0.6-1.8
	c-0.7-0.3-1.5-0.1-1.8,0.6l0,0c-0.8,1.6-1.5,3.3-2.1,5.1C10.9,37.7,11.3,38.4,12,38.6L12,38.6z"/>
<path class="st4" d="M24.1,21.3c0.3,0,0.6-0.1,0.9-0.3c1.3-1.1,2.7-2.2,4.1-3.1c0.6-0.4,0.8-1.2,0.4-1.8c-0.4-0.6-1.2-0.8-1.8-0.4
	c-1.5,1-3,2.1-4.4,3.3c-0.6,0.5-0.6,1.3-0.1,1.9C23.4,21.1,23.7,21.3,24.1,21.3L24.1,21.3z"/>
<path class="st4" d="M17.1,29.2c0.4,0,0.9-0.2,1.1-0.6c1-1.4,2-2.8,3.1-4.1c0.5-0.5,0.4-1.4-0.1-1.9s-1.4-0.4-1.9,0.1l0,0
	C18.1,24.1,17,25.5,16,27c-0.4,0.6-0.2,1.4,0.4,1.8C16.6,29.1,16.8,29.2,17.1,29.2z"/>
<path class="st4" d="M53.5,11.7c1.7,0.1,3.4,0.4,5.1,0.8c0.7,0.2,1.4-0.3,1.6-1c0.2-0.7-0.3-1.4-1-1.6l0,0c-1.8-0.4-3.6-0.7-5.4-0.8
	C53,9,52.3,9.5,52.3,10.3C52.2,11,52.8,11.7,53.5,11.7z"/>
<path class="st4" d="M10.4,49.1L10.4,49.1c0.8,0,1.4-0.5,1.4-1.3c0.1-1.7,0.3-3.4,0.6-5.1c0.1-0.7-0.3-1.4-1.1-1.6s-1.4,0.3-1.6,1.1
	C9.4,44,9.1,45.8,9,47.6C9.1,48.4,9.6,49.1,10.4,49.1z"/>
<path class="st4" d="M85.4,34.4c0.7,1.6,1.3,3.2,1.8,4.8c0.2,0.6,0.7,1,1.3,1c0.1,0,0.3,0,0.4-0.1c0.7-0.2,1.1-0.9,0.9-1.6l0,0
	c-0.5-1.8-1.1-3.5-1.9-5.1c-0.3-0.7-1.1-1-1.7-0.7C85.4,32.9,85,33.7,85.4,34.4C85.3,34.4,85.3,34.4,85.4,34.4L85.4,34.4z"/>
<path class="st4" d="M83,29.9c0.4,0.6,1.2,0.9,1.8,0.5c0.6-0.4,0.9-1.2,0.5-1.8c0,0,0-0.1-0.1-0.1c-1-1.6-2-3-3.2-4.5
	c-0.4-0.6-1.3-0.7-1.9-0.2c-0.6,0.4-0.7,1.3-0.2,1.9c0,0,0,0,0.1,0.1C81.1,27,82.1,28.4,83,29.9z"/>
<path class="st4" d="M63.5,13.9c1.6,0.6,3.2,1.3,4.7,2.1c0.6,0.3,1.5,0.1,1.8-0.6c0.3-0.6,0.1-1.5-0.6-1.8l0,0
	c-1.6-0.9-3.3-1.6-5-2.2c-0.7-0.3-1.5,0.1-1.7,0.7C62.4,12.9,62.7,13.6,63.5,13.9C63.4,13.9,63.5,13.9,63.5,13.9L63.5,13.9z"/>
<path class="st4" d="M76.5,22c0.5,0.5,1.4,0.5,1.9-0.1c0.5-0.5,0.5-1.4-0.1-1.9l0,0c-1.3-1.2-2.8-2.4-4.2-3.5
	c-0.6-0.4-1.4-0.3-1.9,0.3c-0.4,0.6-0.3,1.4,0.3,1.9l0,0C73.9,19.7,75.2,20.8,76.5,22z"/>
<path class="st4" d="M89,59.3c-0.7-0.2-1.4,0.2-1.6,0.9c-0.5,1.7-1,3.3-1.7,4.8c-0.3,0.7,0,1.5,0.7,1.7c0.2,0.1,0.3,0.1,0.5,0.1
	c0.5,0,1-0.3,1.2-0.8c0.7-1.7,1.3-3.4,1.8-5.2C90.1,60.2,89.7,59.5,89,59.3z"/>
<path class="st4" d="M59.3,87.5c-1.7,0.4-3.4,0.7-5.1,0.9c-0.7,0.1-1.3,0.7-1.2,1.5c0.1,0.7,0.6,1.2,1.3,1.2h0.1
	c1.8-0.2,3.6-0.5,5.4-0.9c0.7-0.2,1.2-0.9,1-1.6C60.7,87.7,60,87.3,59.3,87.5L59.3,87.5z"/>
<path class="st4" d="M91.3,49.7c0-0.1,0.1-0.3,0.1-0.4c0-1.8-0.2-3.7-0.5-5.5c-0.1-0.7-0.8-1.2-1.5-1.1c-0.7,0.1-1.2,0.8-1.1,1.5
	c0.3,1.7,0.4,3.4,0.4,5.1c0,0.1,0,0.2,0.1,0.4c0,0.1-0.1,0.2-0.1,0.4c0,1.7-0.1,3.4-0.3,5.1c-0.1,0.7,0.4,1.4,1.1,1.5l0,0
	c0.1,0,0.1,0,0.2,0c0.7,0,1.2-0.5,1.3-1.2c0.2-1.8,0.4-3.6,0.4-5.5C91.3,49.9,91.3,49.8,91.3,49.7L91.3,49.7z"/>
<path class="st4" d="M68.8,83.8c-1.5,0.8-3,1.6-4.6,2.2c-0.7,0.3-1,1-0.8,1.7c0.3,0.7,1,1,1.7,0.8l0,0c1.7-0.7,3.4-1.4,5-2.3
	c0.6-0.3,0.9-1.2,0.5-1.8C70.3,83.6,69.5,83.4,68.8,83.8C68.8,83.7,68.8,83.8,68.8,83.8L68.8,83.8z"/>
<path class="st4" d="M77,77.7c-1.2,1.2-2.5,2.3-3.9,3.3c-0.6,0.4-0.7,1.3-0.3,1.8s1.3,0.7,1.8,0.3c0,0,0,0,0.1,0
	c1.5-1.1,2.9-2.3,4.2-3.5c0.5-0.5,0.5-1.4,0-1.9C78.4,77.2,77.5,77.2,77,77.7L77,77.7z"/>
<path class="st4" d="M85.2,69.2c-0.6-0.4-1.4-0.2-1.8,0.5c-0.9,1.5-1.8,2.9-2.9,4.2c-0.5,0.6-0.4,1.4,0.2,1.9s1.4,0.4,1.9-0.2
	c0,0,0,0,0.1-0.1c1.1-1.4,2.2-2.9,3.1-4.5C86,70.3,85.8,69.5,85.2,69.2L85.2,69.2L85.2,69.2z"/>
<path class="st4" d="M49.1,88.5c-1.7,0-3.4-0.2-5.1-0.5c-0.7-0.1-1.4,0.4-1.5,1.1s0.4,1.4,1.1,1.5c1.8,0.3,3.6,0.5,5.5,0.5l0,0
	c0.7,0,1.3-0.6,1.3-1.3C50.4,89.1,49.8,88.5,49.1,88.5L49.1,88.5z"/>
<path class="st4" d="M12.5,58.1c-0.4-1.7-0.6-3.4-0.7-5.1c0-0.7-0.7-1.3-1.4-1.3s-1.3,0.7-1.3,1.4c0,0,0,0,0,0.1
	c0.1,1.8,0.4,3.6,0.8,5.4c0.1,0.6,0.7,1.1,1.3,1.1c0.1,0,0.2,0,0.3,0C12.2,59.5,12.7,58.8,12.5,58.1L12.5,58.1z"/>
<path class="st4" d="M29.7,82.6c-1.4-0.9-2.8-1.9-4.1-3c-0.6-0.5-1.4-0.4-1.9,0.2s-0.4,1.4,0.2,1.9l0,0c1.4,1.2,2.9,2.2,4.4,3.2
	c0.6,0.4,1.4,0.2,1.8-0.4C30.5,83.8,30.3,83,29.7,82.6z"/>
<path class="st4" d="M18.6,72.1c-0.4-0.6-1.3-0.7-1.9-0.3c-0.6,0.4-0.7,1.2-0.3,1.8c1,1.5,2.2,2.9,3.4,4.3c0.5,0.6,1.3,0.6,1.9,0.1
	s0.6-1.3,0.1-1.9l0,0C20.7,74.8,19.6,73.5,18.6,72.1L18.6,72.1z"/>
<path class="st4" d="M13.9,63c-0.2-0.7-1-1.1-1.7-0.8s-1.1,1-0.8,1.7c0.6,1.7,1.3,3.4,2.2,5c0.3,0.7,1.1,0.9,1.8,0.6
	c0.7-0.3,0.9-1.1,0.6-1.8C15.2,66.2,14.5,64.6,13.9,63L13.9,63z"/>
<path class="st4" d="M39,86.9c-1.6-0.5-3.2-1.1-4.8-1.8c-0.7-0.3-1.5,0-1.8,0.6c-0.3,0.7,0,1.5,0.6,1.8c0,0,0,0,0.1,0
	c1.7,0.8,3.4,1.4,5.1,1.9c0.1,0,0.3,0.1,0.4,0.1c0.7,0,1.3-0.6,1.3-1.3C39.9,87.6,39.6,87.1,39,86.9L39,86.9z"/>
<path class="st4" d="M14.4,50.1c0,19.8,16,35.8,35.8,35.8S86,69.8,86,50.1S70,14.2,50.2,14.2C30.4,14.3,14.4,30.3,14.4,50.1z
	 M50.2,16.9c18.3,0,33.2,14.9,33.2,33.2S68.5,83.2,50.2,83.2S17,68.4,17,50.1C17,31.7,31.9,16.9,50.2,16.9z"/>
<path class="st4" d="M50.2,70c11,0,19.9-8.9,19.9-19.9c0-8.8-5.8-16.6-14.2-19.1c-0.7-0.2-1.4,0.2-1.6,0.9c-0.2,0.7,0.2,1.4,0.9,1.6
	c9.1,2.7,14.3,12.3,11.6,21.5C64,64.1,54.4,69.3,45.3,66.6C36.2,63.9,31,54.3,33.7,45.1c1.7-5.6,6-9.9,11.6-11.6
	c0.7-0.2,1.1-1,0.9-1.7c-0.2-0.7-0.9-1.1-1.6-0.9C34,34.1,28,45.2,31.1,55.7C33.6,64.2,41.4,70,50.2,70z"/>
<path class="st4" d="M50.2,39.4c0.7,0,1.3-0.6,1.3-1.3V27.5c0-0.7-0.6-1.3-1.3-1.3s-1.3,0.6-1.3,1.3v10.6
	C48.9,38.8,49.5,39.4,50.2,39.4z"/>
</svg>
