<?xml version="1.0" encoding="utf-8"?>
<!-- Generator: Adobe Illustrator 22.0.1, SVG Export Plug-In . SVG Version: 6.00 Build 0)  -->
<svg version="1.1" id="ic_empty_masternode" xmlns="http://www.w3.org/2000/svg" xmlns:xlink="http://www.w3.org/1999/xlink"
	 x="0px" y="0px" viewBox="0 0 100 100" style="enable-background:new 0 0 100 100;" xml:space="preserve">
<style type="text/css">
	.st0{fill:none;}
	.st1{fill:#FFFFFF;}
</style>
<path id="Rectangle_4674" class="st0" d="M0,0h100v100H0V0z"/>
<g id="Group_9047">
	<g id="Group_9045">
		<g id="Group_9044">
			<path id="Path_18995" class="st1" d="M38.2,49.5v17.8h-8V32.7L51,49.6l20.8-16.9v34.7h-8V49.5L51,59.9"/>
		</g>
	</g>
</g>
<path class="st1" d="M51,4.6C26,4.6,5.6,25,5.6,50S26,95.4,51,95.4S96.4,75,96.4,50C96.3,25,76,4.7,51,4.6z M82,78.9l-4.1-4.1
	c5.9-6.4,9.3-14.7,9.7-23.3l0,0h2.9c0.8,0,1.5-0.7,1.5-1.5s-0.7-1.5-1.5-1.5h-2.9l0,0c-0.3-8.7-3.8-17-9.7-23.3l4.1-4.1
	C97.2,37.3,97.2,62.7,82,78.9L82,78.9z M51,83.6c-18.6,0-33.6-15.1-33.6-33.6s15-33.6,33.6-33.6s33.6,15,33.6,33.6
	S69.6,83.6,51,83.6z M79.9,19l-4.1,4.1c-6.4-5.9-14.7-9.3-23.3-9.7l0,0v-2.9C52.5,9.7,51.8,9,51,9s-1.5,0.7-1.5,1.5v2.9l0,0
	c-8.7,0.3-17,3.8-23.3,9.7L22.1,19C38.3,3.8,63.7,3.8,79.9,19L79.9,19z M20,21.1l4.1,4.1c-5.9,6.4-9.3,14.7-9.7,23.3l0,0h-2.9
	c-0.8,0-1.5,0.7-1.5,1.5s0.7,1.5,1.5,1.5h2.9l0,0c0.3,8.7,3.8,17,9.7,23.3L20,78.9C4.8,62.7,4.8,37.3,20,21.1L20,21.1z M22.1,81
	l4.1-4.1c6.4,5.9,14.7,9.3,23.3,9.7l0,0v2.9c0,0.8,0.7,1.5,1.5,1.5s1.5-0.7,1.5-1.5v-2.9l0,0c8.7-0.3,17-3.8,23.3-9.7l4.1,4.1
	C63.7,96.2,38.3,96.2,22.1,81L22.1,81z"/>
</svg>
