<?xml version="1.0" encoding="utf-8"?>
<!-- Generator: Adobe Illustrator 22.0.1, SVG Export Plug-In . SVG Version: 6.00 Build 0)  -->
<svg version="1.1" id="ic_staking_on" xmlns="http://www.w3.org/2000/svg" xmlns:xlink="http://www.w3.org/1999/xlink" x="0px"
	 y="0px" viewBox="0 0 100 100" style="enable-background:new 0 0 100 100;" xml:space="preserve">
<style type="text/css">
	.st0{display:none;}
	.st1{display:inline;}
	.st2{fill:#D6D6D6;}
	.st3{fill:#666666;}
	.st4{display:none;fill:none;}
	.st5{fill:#FFFFFF;}
</style>
<g id="Group_9018" class="st0">
	<g id="Group_9016" class="st1">
		<ellipse id="Ellipse_613" class="st2" cx="80" cy="56" rx="12" ry="4"/>
		<ellipse id="Ellipse_614" class="st2" cx="64" cy="68" rx="12" ry="4"/>
		<path id="Rectangle_4669" class="st2" d="M32,24h14v14H32V24z"/>
	</g>
	<g id="Group_9017" class="st1">
		<path id="Rectangle_4670" class="st3" d="M12,60h2v4h-2V60z"/>
		<path id="Rectangle_4671" class="st3" d="M28.7,50.4h10.6v2.2H28.7V50.4z"/>
		<path id="Path_18974" class="st3" d="M40.3,57.5H31V71h2.7V60h6.9c5,0,8.6-3.4,8.6-8.6s-3.6-8.5-8.6-8.5H30.5v2.5h6.9h2.9
			c3.7,0,6.1,2.2,6.1,6C46.5,55.3,44,57.5,40.3,57.5z"/>
		<path id="Path_18975" class="st3" d="M92,58c0.6-0.5,0.9-1.2,1-2c0-3.3-6.5-5-13-5s-13,1.7-13,5c0,0.8,0.4,1.5,1,2
			c-1.1,0.9-1.3,2.5-0.4,3.6c0.1,0.1,0.2,0.3,0.4,0.4c-0.3,0.3-0.6,0.7-0.8,1.2c-0.4,0-0.8-0.1-1.2-0.1V39h5V23H52.6
			c3.9-3.1,4.5-8.8,1.4-12.6S45.2,5.9,41.4,9c-1,0.8-1.8,1.8-2.4,2.9C36.7,7.5,31.3,5.7,26.9,8s-6.2,7.7-3.9,12.1
			c0.6,1.1,1.4,2.1,2.4,2.9H7v16h5v17h2V39h50v24c-6.5,0-13,1.7-13,5c0,0.8,0.4,1.5,1,2c-1.1,0.9-1.3,2.5-0.4,3.6
			c0.1,0.1,0.2,0.3,0.4,0.4c-0.3,0.3-0.6,0.6-0.7,1H14v-7h-2v9h39.2c0.2,0.4,0.4,0.7,0.7,1c-1.1,0.9-1.3,2.5-0.4,3.6
			c0.1,0.1,0.2,0.3,0.4,0.4c-1.1,0.9-1.3,2.5-0.4,3.6c0.1,0.1,0.2,0.3,0.4,0.4c-0.6,0.5-0.9,1.2-1,2c0,3.3,6.5,5,13,5
			c5.9,0,11.8-1.4,12.8-4.2c1,0.1,2.1,0.2,3.2,0.2c6.5,0,13-1.7,13-5c0-0.8-0.4-1.5-1-2c1.1-0.9,1.3-2.5,0.4-3.6
			c-0.1-0.1-0.2-0.3-0.4-0.4c1.1-0.9,1.3-2.5,0.4-3.6c-0.1-0.1-0.2-0.3-0.4-0.4c1.1-0.9,1.3-2.5,0.4-3.6c-0.1-0.1-0.2-0.3-0.4-0.4
			c1.1-0.9,1.3-2.5,0.4-3.6c-0.1-0.1-0.2-0.3-0.4-0.4c1.1-0.9,1.3-2.5,0.4-3.6c-0.1-0.1-0.2-0.3-0.4-0.4c1.1-0.9,1.3-2.5,0.4-3.6
			C92.3,58.2,92.2,58.1,92,58z M31,37H9V25h22V37z M24,16c0-3.9,3.1-7,7-7s7,3.1,7,7v7h-7C27.1,23,24,19.9,24,16z M45,37H33V25h12
			V37z M40,23v-7c0-3.9,3.1-7,7-7s7,3.1,7,7s-3.1,7-7,7H40z M47,37V25h22v12H47z M51,76c0,0.2,0,0.3,0.1,0.5C51,76.3,51,76.2,51,76z
			 M64,91c-7.1,0-11-2-11-3c0-0.2,0.2-0.5,0.7-0.8C56.2,88.4,60.1,89,64,89s7.8-0.6,10.3-1.8c0.4,0.3,0.7,0.6,0.7,0.8
			C75,89,71.1,91,64,91z M64,87c-7.1,0-11-2-11-3c0-0.2,0.2-0.5,0.7-0.8C56.2,84.4,60.1,85,64,85s7.8-0.6,10.3-1.8
			c0.4,0.3,0.7,0.6,0.7,0.8C75,85,71.1,87,64,87z M64,83c-7.1,0-11-2-11-3c0-0.2,0.2-0.5,0.7-0.8C56.2,80.4,60.1,81,64,81
			s7.8-0.6,10.3-1.8c0.4,0.3,0.7,0.6,0.7,0.8C75,81,71.1,83,64,83z M64,79c-7.1,0-11-2-11-3c0-0.2,0.2-0.5,0.7-0.8
			C56.2,76.4,60.1,77,64,77s7.8-0.6,10.3-1.8c0.4,0.3,0.7,0.6,0.7,0.8C75,77,71.1,79,64,79z M64,75c-7.1,0-11-2-11-3
			c0-0.2,0.2-0.5,0.7-0.8C56.2,72.4,60.1,73,64,73s7.8-0.6,10.3-1.8c0.4,0.3,0.7,0.6,0.7,0.8C75,73,71.1,75,64,75z M64,71
			c-7.1,0-11-2-11-3s3.9-3,11-3s11,2,11,3S71.1,71,64,71z M80,87c-1.2,0-2.3-0.1-3.3-0.2c-0.2-0.3-0.4-0.6-0.6-0.8
			c0.3-0.3,0.6-0.7,0.8-1.2c1,0.1,2.1,0.2,3.2,0.2c3.9,0,7.8-0.6,10.3-1.8c0.4,0.3,0.7,0.6,0.7,0.8C91,85,87.1,87,80,87z M80,83
			c-1.2,0-2.3-0.1-3.3-0.2c-0.2-0.3-0.4-0.6-0.6-0.8c0.3-0.3,0.6-0.7,0.8-1.2c1,0.1,2.1,0.2,3.2,0.2c3.9,0,7.8-0.6,10.3-1.8
			c0.4,0.3,0.7,0.6,0.7,0.8C91,81,87.1,83,80,83z M80,79c-1.2,0-2.3-0.1-3.3-0.2c-0.2-0.3-0.4-0.6-0.6-0.8c0.3-0.3,0.6-0.7,0.8-1.2
			c1,0.1,2.1,0.2,3.2,0.2c3.9,0,7.8-0.6,10.3-1.8c0.4,0.3,0.7,0.6,0.7,0.8C91,77,87.1,79,80,79z M80,75c-1.2,0-2.3-0.1-3.3-0.2
			c-0.2-0.3-0.4-0.6-0.6-0.8c0.3-0.3,0.6-0.7,0.8-1.2c1,0.1,2.1,0.2,3.2,0.2c3.9,0,7.8-0.6,10.3-1.8c0.4,0.3,0.7,0.6,0.7,0.8
			C91,73,87.1,75,80,75z M80,71c-1.2,0-2.3-0.1-3.3-0.2c-0.2-0.3-0.4-0.6-0.6-0.8c0.3-0.3,0.6-0.7,0.8-1.2c1,0.1,2.1,0.2,3.2,0.2
			c3.9,0,7.8-0.6,10.3-1.8c0.4,0.3,0.7,0.6,0.7,0.8C91,69,87.1,71,80,71z M80,67c-1.2,0-2.3-0.1-3.3-0.2c-0.6-1.2-2.2-2.1-4.2-2.7
			c2.5,0.6,5,0.9,7.5,0.9c3.9,0,7.8-0.6,10.3-1.8c0.4,0.3,0.7,0.6,0.7,0.8C91,65,87.1,67,80,67z M69.4,63.4c0.1-0.1,0.2-0.2,0.3-0.3
			c0.6,0.3,1.2,0.5,1.8,0.7C70.8,63.7,70.1,63.5,69.4,63.4z M80,63c-7.1,0-11-2-11-3c0-0.2,0.2-0.5,0.7-0.8C72.2,60.4,76.1,61,80,61
			s7.8-0.6,10.3-1.8c0.4,0.3,0.7,0.6,0.7,0.8C91,61,87.1,63,80,63z M80,59c-7.1,0-11-2-11-3s3.9-3,11-3s11,2,11,3S87.1,59,80,59z"/>
	</g>
</g>
<path id="Rectangle_4672" class="st4" d="M0,0h100v100H0V0z"/>
<g id="Bitcoin-3">
	<path class="st5" d="M48.8,14.1h7.7c2.1,0,3.8,1.7,3.8,3.8v3.8H59c-0.7,0-1.3,0.6-1.3,1.3v5.1c0,0.7,0.6,1.3,1.3,1.3h10.3
		c0.7,0,1.3-0.6,1.3-1.3V23c0-0.7-0.6-1.3-1.3-1.3H68v-3.8c0-6.4-5.2-11.5-11.5-11.5h-7.7c-6.4,0-11.5,5.2-11.5,11.5v24.4H36
		c-0.7,0-1.3,0.6-1.3,1.3v3.8h-2.6c-0.7,0-1.3,0.6-1.3,1.3v7.7h-2.6v-3.8c0-0.7-0.6-1.3-1.3-1.3h-5.1c-0.7,0-1.3,0.6-1.3,1.3v10.3
		c0,0.7,0.6,1.3,1.3,1.3H27c0.7,0,1.3-0.6,1.3-1.3V59h2.6v7.7c0,0.7,0.6,1.3,1.3,1.3h5.1v16.7c0,0.7,0.6,1.3,1.3,1.3h5.1
		c0.7,0,1.3-0.6,1.3-1.3V68h5.1c0.7,0,1.3-0.6,1.3-1.3v-18c0-0.7-0.6-1.3-1.3-1.3h-2.6v-3.8c0-0.7-0.6-1.3-1.3-1.3h-1.3V17.9
		C44.9,15.8,46.7,14.1,48.8,14.1z M25.7,61.5h-2.6v-7.7h2.6V61.5z M68,26.9h-7.7v-2.6H68V26.9z M42.4,83.3h-2.6V68h2.6V83.3z
		 M48.8,65.4H33.4V50h15.4C48.8,50,48.8,65.4,48.8,65.4z M37.3,47.4v-2.6H45v2.6H37.3z M39.8,42.3V17.9c0-5,4-9,9-9h7.7c5,0,9,4,9,9
		v3.8h-2.6v-3.8c0-3.5-2.9-6.4-6.4-6.4h-7.7c-3.5,0-6.4,2.9-6.4,6.4v24.4H39.8z"/>
	<path class="st5" d="M48.4,59c0-2.1-1.7-3.8-3.8-3.8s-3.8,1.7-3.8,3.8s1.7,3.8,3.8,3.8S48.4,61.1,48.4,59z M44.6,60.3
		c-0.7,0-1.3-0.6-1.3-1.3s0.6-1.3,1.3-1.3s1.3,0.6,1.3,1.3C45.9,59.7,45.3,60.3,44.6,60.3z"/>
	<path class="st5" d="M43.3,65.4h-3.8c-0.7,0-1.3,0.6-1.3,1.3s0.6,1.3,1.3,1.3h3.8c0.7,0,1.3-0.6,1.3-1.3S44,65.4,43.3,65.4z"/>
	<path class="st5" d="M48.4,65.4h-1.3c-0.7,0-1.3,0.6-1.3,1.3s0.6,1.3,1.3,1.3h1.3c0.7,0,1.3-0.6,1.3-1.3S49.1,65.4,48.4,65.4z"/>
	<g>
		<polygon class="st5" points="62.7,50.9 66.9,48 65.9,46.5 60,50.6 60.5,50.6 62.7,50.8 60.5,50.6 		"/>
		<polygon class="st5" points="68.4,51.9 67.4,50.4 63.8,52.9 63.8,52.9 63.8,52.9 63.7,52.9 63.7,52.9 63.6,52.8 61,52.6 
			65.5,59.2 67.3,58 64.7,54.3 		"/>
	</g>
</g>
<path class="st5" d="M76.2,53.7c-0.1-5.9-9.6-17.4-10.7-18.7c-0.4-0.5-1.1-0.5-1.6-0.1c-0.1,0-0.1,0.1-0.2,0.2
	c-1.1,1.3-10.3,13.1-10.3,19c0.1,6.3,5.2,11.3,11.5,11.2C71.2,65.1,76.3,59.9,76.2,53.7z M55.8,53.9c0-3.9,5.8-12.3,8.9-16.4
	c3.2,4,9.2,12.3,9.2,16.2c0.1,5-4,9.1-9,9.2S55.8,58.9,55.8,53.9z"/>
</svg>
